<svg width="333" height="197" viewBox="0 0 333 197" fill="none" xmlns="http://www.w3.org/2000/svg">
<path d="M158.293 96.3012C168.56 96.3012 174.709 91.4658 174.709 86.8097V82.6645C174.709 78.2945 171.542 76.513 167.431 75.5896L174.351 66.3934V63.5876H179.542V87.1675C179.542 108.36 188.078 113.613 198.824 113.613L208.255 101.853V97.7079L208.016 97.469C205.211 100.514 201.271 100.872 199.48 100.872C191.003 100.872 188.556 93.7679 188.556 86.5445V63.5876H201.928L201.868 62.3939L201.928 59.4424L201.868 58.2486H188.556V48.6973L184.138 48.7568L179.542 58.2486H173.99V61.9859C169.877 59.0909 162.94 57.2338 156.621 57.2338C146.951 57.2338 141.876 61.8303 141.876 66.4269V70.5721C141.876 82.1657 162.426 77.1426 166.227 82.6735C165.158 84.256 162.774 84.8731 159.964 84.8731C154.174 84.8731 146.533 82.3062 144.324 80.2765L140.265 87.0222V91.1674C144.204 94.3314 151.428 96.3012 158.293 96.3012ZM165.039 75.1513C158.821 74.2128 151.543 74.3482 149.492 70.669C150.757 68.7837 153.965 67.7665 157.218 67.7665C160.888 67.7665 164.63 69.049 165.796 71.9445C165.596 72.5925 165.343 73.2229 165.039 73.8292L165.039 75.1513Z" fill="url(#paint0_linear_3087_21875)"/>
<path d="M236.962 66.0351V94.6297H246.036V93.1971C246.156 76.6612 250.872 71.2887 253.856 71.2887C255.23 71.2887 256.245 72.4229 256.245 74.2138C256.226 74.8654 256.105 75.51 255.886 76.1241L256.424 76.303L264.005 64.7818V60.6366C262.156 59.2628 259.969 58.4168 257.677 58.1887C251.648 58.1887 247.827 66.7253 246.036 78.0679V63.6212C246.036 58.547 238.813 58.2486 235.53 58.2486H234.157V63.5876H235.53C236.783 63.5876 236.962 64.9012 236.962 66.0351Z" fill="url(#paint1_linear_3087_21875)"/>
<path d="M87.4425 57.9033V94.6297H96.636V48.6973H87.4425L72.638 87.0356L57.8334 48.6973H48.6403V86.5445C48.6403 93.7679 46.1928 100.872 37.7158 100.872C35.8654 100.872 31.985 100.514 29.1198 97.469L28.9404 97.7079V101.853L38.3129 113.613C49.118 113.613 57.8334 108.36 57.8334 87.1675V57.9033L71.9814 94.6297H73.2946L87.4425 57.9033ZM72.3691 90.4845H72.9068L72.638 91.1808L72.3691 90.4845Z" fill="url(#paint2_linear_3087_21875)"/>
<path d="M115.435 109.614C128.09 109.614 136.149 103.166 136.149 90.6302V58.2487H127.135V63.4423C126.717 73.4115 124.031 84.3359 118.061 84.3359C112.271 84.3359 111.674 80.3361 111.674 73.8292V58.2487H102.6V80.7206C102.6 84.8006 103.274 87.9708 104.697 90.2326L100.57 95.6782V99.8234C100.57 104.838 106.062 109.614 115.435 109.614ZM114.181 94.6297C121.941 94.6297 125.702 84.3024 127.135 74.8704V86.7834C127.135 94.1262 122.001 96.9319 116.867 96.9319C113.052 96.9319 109.217 95.3849 107.396 92.9856C109.456 94.1671 111.809 94.7374 114.181 94.6297Z" fill="url(#paint3_linear_3087_21875)"/>
<path d="M261.935 75.4009C261.935 77.8196 260.974 80.1391 259.264 81.8494C257.554 83.5596 255.234 84.5204 252.815 84.5204V88.6656C255.234 88.6656 257.554 89.6264 259.264 91.3366C260.974 93.0468 261.935 95.3664 261.935 97.785C261.935 95.3664 262.896 93.0468 264.606 91.3366C266.316 89.6264 268.636 88.6656 271.054 88.6656V84.5204C268.636 84.5204 266.316 83.5596 264.606 81.8494C262.896 80.1391 261.935 77.8196 261.935 75.4009Z" fill="url(#paint4_linear_3087_21875)"/>
<path d="M304 48.6973H293.255L281.912 66.1286L270.57 48.6973H259.824V52.8425L277.316 77.7955V86.5445C277.316 93.7679 274.868 100.872 266.451 100.872C264.6 100.872 260.661 100.514 257.854 97.469L257.616 97.7079V101.853L267.048 113.613C277.793 113.613 286.568 108.36 286.568 87.1675V77.7356L304 52.8425L304 48.6973Z" fill="url(#paint5_linear_3087_21875)"/>
<path d="M198.641 78.5714C198.641 89.9732 208.432 95.8234 216.849 95.8234C219.801 95.8455 222.721 95.2085 225.396 93.959C228.071 92.7094 230.433 90.8788 232.31 88.6005V84.4553L226.454 79.2879H233.683C233.668 77.8233 233.683 75.1427 233.683 75.1427C233.564 63.6811 225.863 57.1738 216.849 57.1738C208.492 57.1738 198.641 63.0241 198.641 74.4262V78.5714ZM217.267 67.9453C220.95 67.9453 223.642 70.5612 224.874 73.889H208.422C209.072 72.0858 210.28 70.537 211.871 69.468C213.461 68.3989 215.352 67.8655 217.267 67.9453ZM217.147 83.4999C215.575 83.5607 214.015 83.2027 212.627 82.4627C211.238 81.7226 210.072 80.627 209.246 79.2879H226.056C225.028 80.6644 223.679 81.7681 222.126 82.5024C220.573 83.2367 218.863 83.5792 217.147 83.4999Z" fill="url(#paint6_linear_3087_21875)"/>
<path d="M182.572 138.143V133.998C182.572 122.477 172.543 116.865 164.007 116.865C155.411 116.865 145.382 122.477 145.382 133.998V138.143C145.382 149.664 155.411 155.276 164.007 155.276C172.543 155.276 182.572 149.664 182.572 138.143ZM163.725 129.379C163.073 132.51 161.844 133.442 158.097 134.057V138.202C161.778 138.858 163.029 139.736 163.689 142.76C159.905 142.644 155.705 140.459 154.687 136.079C155.708 131.713 159.931 129.485 163.725 129.379ZM164.325 142.76C164.985 139.736 166.236 138.858 169.917 138.202V134.057C166.17 133.442 164.94 132.51 164.289 129.379C168.035 129.486 172.293 131.714 173.324 136.079C172.297 140.457 168.062 142.643 164.325 142.76Z" fill="url(#paint7_linear_3087_21875)"/>
<path d="M147.115 120.328C145.267 118.954 143.08 118.108 140.788 117.88C134.758 117.88 130.938 126.416 129.147 137.759V123.312C129.147 118.238 121.924 117.94 118.641 117.94H117.267V123.279H118.641C119.894 123.279 120.073 124.592 120.073 125.726V154.321H129.147V152.888C129.266 136.352 133.982 130.98 136.967 130.98C138.34 130.98 139.355 132.114 139.355 133.905C139.336 134.556 139.215 135.201 138.997 135.815L139.534 135.994L147.115 124.473L147.115 120.328Z" fill="url(#paint8_linear_3087_21875)"/>
<path d="M256.271 130.812L264.706 118.981V114.835C260.05 109.761 252.588 107.254 245.006 107.254C235.753 107.254 227.456 111.134 227.456 119.432V123.577C227.456 136.965 252.816 130.678 256.536 139.707C255.213 142.042 251.315 143.549 247.813 143.549C242.201 143.549 234.022 141.161 230.023 137.46L225.426 145.101V149.246C230.142 153.246 238.738 155.694 246.797 155.694C256.767 155.694 265.84 151.873 265.84 143.754V139.609C265.84 134.389 261.586 132.171 256.271 130.812ZM255.463 130.618C247.809 128.809 238.373 128.49 236.141 123.632C237.571 121.149 241.775 119.518 245.185 119.518C249.003 119.518 254.606 121.168 255.937 125.55C255.808 126.067 255.647 126.576 255.454 127.073C255.454 127.073 255.525 130.633 255.463 130.618Z" fill="url(#paint9_linear_3087_21875)"/>
<path d="M95.6617 108.388H72.7983V154.321H95.6617C109.273 154.142 116.078 143.754 116.078 133.427C116.078 132.735 116.045 132.044 115.984 131.354C116.045 130.665 116.078 129.974 116.078 129.282C116.078 118.954 109.273 108.567 95.6617 108.388ZM95.3039 120.294C102.539 120.294 105.947 126.197 106.497 133.027C105.848 141.062 101.61 148.922 95.3039 148.922H81.9915V120.294H95.3039Z" fill="url(#paint10_linear_3087_21875)"/>
<path d="M206.865 117.044C201.194 117.044 197.134 120.268 195.642 127.371V123.312C195.642 118.238 188.419 117.94 185.195 117.94H183.762V123.278H185.136C186.209 123.278 186.506 124.145 186.568 125.096V146.235C186.568 153.459 184.121 160.563 175.704 160.563C173.853 160.563 169.913 160.204 167.107 157.16L166.928 157.399V161.544L176.3 173.304C187.105 173.304 195.642 168.051 195.642 146.858V144.829C197.074 151.993 201.134 155.216 206.865 155.216C214.804 155.216 223.103 149.008 223.103 138.202V134.057C223.103 123.312 214.804 117.044 206.865 117.044ZM204.537 143.907C200.554 143.907 196.628 141.397 195.807 136.139C196.628 130.923 200.554 128.413 204.537 128.413C206.747 128.383 208.894 129.146 210.59 130.564C212.286 131.981 213.419 133.959 213.782 136.139C213.428 138.327 212.299 140.315 210.602 141.741C208.906 143.166 206.753 143.935 204.537 143.907Z" fill="url(#paint11_linear_3087_21875)"/>
<path d="M95.662 108.388C109.273 108.567 116.078 118.954 116.078 129.282C116.078 139.609 109.273 149.996 95.662 150.175H72.7986V108.388H95.662ZM81.9917 148.922H95.3041C102.169 148.922 106.586 139.609 106.586 130.894C106.586 123.253 103.244 116.149 95.3041 116.149H81.9917V148.922ZM129.147 150.175H120.073V121.581C120.073 120.447 119.894 119.133 118.641 119.133H117.268V117.94H118.641C121.924 117.94 129.147 118.238 129.147 123.312V137.759C130.938 126.416 134.759 117.88 140.788 117.88C143.08 118.108 145.267 118.954 147.116 120.327L139.534 131.849L138.997 131.67C139.215 131.056 139.336 130.411 139.355 129.759C139.355 127.969 138.34 126.834 136.967 126.834C133.982 126.834 129.266 132.207 129.147 148.743L129.147 150.175ZM164.007 151.13C155.411 151.13 145.382 145.519 145.382 133.998C145.382 122.477 155.411 116.865 164.007 116.865C172.544 116.865 182.573 122.477 182.573 133.998C182.573 145.519 172.544 151.13 164.007 151.13ZM164.007 125.222C159.59 125.222 154.456 128.147 154.456 133.998C154.456 139.908 159.59 142.773 164.007 142.773C168.365 142.773 173.559 139.908 173.559 133.998C173.559 128.147 168.365 125.222 164.007 125.222ZM169.917 134.057C165.559 134.834 164.604 135.908 164.007 140.505C163.41 135.908 162.455 134.834 158.098 134.057C162.455 133.341 163.41 132.207 164.007 127.67C164.604 132.207 165.559 133.341 169.917 134.057V134.057ZM186.568 122.058C186.628 120.805 186.628 119.133 185.136 119.133H183.763V117.94H185.195C188.419 117.94 195.642 118.238 195.642 123.312V127.371C197.135 120.268 201.194 117.044 206.865 117.044C214.804 117.044 223.103 123.312 223.103 134.057C223.103 144.862 214.804 151.071 206.865 151.071C201.134 151.071 197.075 147.847 195.642 140.684V142.713C195.642 163.906 187.106 169.159 176.3 169.159L166.928 157.399L167.107 157.16C169.913 160.204 173.853 160.563 175.704 160.563C184.121 160.563 186.568 153.459 186.568 146.235V122.058L186.568 122.058ZM204.537 124.267C200.06 124.267 195.642 127.431 195.642 134.057C195.642 140.743 200.06 143.907 204.537 143.907C209.194 143.907 213.969 140.505 213.969 134.057C213.969 127.67 209.194 124.267 204.537 124.267H204.537ZM255.812 127.312L255.454 127.073C255.938 125.918 256.201 124.683 256.23 123.432C256.23 117.522 249.544 115.373 245.186 115.373C241.007 115.373 235.635 117.82 235.635 121.282C235.635 133.102 265.841 125.7 265.841 139.609C265.841 147.728 256.767 151.549 246.798 151.549C238.739 151.549 230.142 149.101 225.426 145.101L230.023 137.46C234.023 141.161 242.202 143.549 247.813 143.549C252.11 143.549 257.006 141.281 257.006 137.997C257.006 125.401 227.456 133.878 227.456 119.432C227.456 111.134 235.754 107.254 245.007 107.254C252.588 107.254 260.05 109.761 264.706 114.835L255.812 127.312Z" fill="url(#paint12_linear_3087_21875)"/>
<path d="M57.8337 48.6973L72.6382 87.0356L87.4427 48.6973H96.6363V90.4845H87.4427V53.7581L73.2948 90.4845H71.9816L57.8337 53.7581V83.0223C57.8337 104.215 49.1182 109.468 38.3131 109.468L28.9407 97.7079L29.12 97.469C31.9852 100.514 35.8657 100.872 37.716 100.872C46.1931 100.872 48.6405 93.7679 48.6405 86.5445V48.6973H57.8337ZM136.149 58.2486V86.485C136.149 99.021 128.09 105.468 115.435 105.468C106.063 105.468 100.57 100.692 100.57 95.6782L106.361 88.0371C103.794 85.828 102.6 82.0075 102.6 76.5754V58.2486H111.674V73.8292C111.674 80.336 112.271 84.3359 118.061 84.3359C124.031 84.3359 126.717 73.4114 127.135 63.4423V58.2486H136.149ZM127.135 74.3664V70.7251C125.703 80.1571 121.941 90.4845 114.181 90.4845C110.957 90.4845 108.45 89.768 106.6 88.2759C106.414 88.8141 106.313 89.3781 106.301 89.9473C106.301 94.0067 111.614 96.9318 116.867 96.9318C122.001 96.9318 127.135 94.1261 127.135 86.7834V74.3664ZM165.456 74.0681L165.039 73.8292C165.721 72.5802 166.109 71.1917 166.173 69.7699C166.173 65.472 161.636 63.6213 157.218 63.6213C153.04 63.6213 148.921 65.2927 148.921 68.3372C148.921 78.7841 174.709 70.188 174.709 82.6645C174.709 87.3206 168.56 92.156 158.293 92.156C151.428 92.156 144.205 90.1862 140.265 87.0223L144.324 80.2766C146.533 82.3063 154.174 84.8731 159.964 84.8731C163.785 84.8731 166.83 83.7389 166.83 80.5749C166.83 71.7995 141.877 79.2018 141.877 66.427C141.877 61.8304 146.951 57.2338 156.622 57.2338C163.128 57.2338 170.292 59.2036 174.351 62.2482L165.456 74.0681ZM184.138 48.7568L188.556 48.6973V58.2487H201.868L201.928 59.4425H188.556V86.5445C188.556 93.7679 191.003 100.872 199.48 100.872C201.271 100.872 205.211 100.514 208.016 97.469L208.255 97.7079L198.824 109.468C188.078 109.468 179.542 104.215 179.542 83.0223V59.4424H173.99V58.2486H179.542L184.138 48.7568ZM216.849 57.1739C225.863 57.1739 233.564 63.6812 233.684 75.1428H207.775C208.372 79.5006 211.477 83.5 217.147 83.5C221.088 83.5 224.132 82.0075 226.221 79.0824L232.31 84.4554C230.433 86.7337 228.071 88.5644 225.396 89.8139C222.721 91.0635 219.801 91.7004 216.849 91.6784C208.432 91.6784 198.641 85.8281 198.641 74.4264C198.641 63.0241 208.492 57.1739 216.849 57.1739V57.1739ZM225.625 73.8891C225.625 68.8744 222.401 63.8002 217.267 63.8002C210.819 63.8002 207.596 68.8744 207.715 73.8891H225.625ZM246.037 90.4846H236.962V61.8899C236.962 60.756 236.784 59.4424 235.53 59.4424H234.157V58.2486H235.53C238.813 58.2486 246.037 58.547 246.037 63.6212V78.0679C247.827 66.7253 251.648 58.1887 257.677 58.1887C259.969 58.4168 262.156 59.2628 264.005 60.6366L256.424 72.1578L255.886 71.9789C256.105 71.3647 256.226 70.7202 256.245 70.0686C256.245 68.2777 255.23 67.1435 253.857 67.1435C250.872 67.1435 246.156 72.516 246.037 89.0519L246.037 90.4846ZM270.57 48.6973L281.912 66.1286L293.255 48.6973H304L286.568 73.5904V83.0224C286.568 104.215 277.793 109.468 267.048 109.468L257.616 97.7079L257.854 97.469C260.661 100.514 264.6 100.872 266.451 100.872C274.868 100.872 277.316 93.7679 277.316 86.5445V73.6503L259.824 48.6973H270.57Z" fill="url(#paint13_linear_3087_21875)"/>
<g filter="url(#filter0_dd_3087_21875)">
<path d="M38.5082 53.0164C38.5082 49.1686 36.9797 45.4784 34.2589 42.7576C31.538 40.0368 27.8478 38.5082 24 38.5082V38.5082C27.8478 38.5082 31.538 36.9797 34.2589 34.2589C36.9797 31.538 38.5082 27.8478 38.5082 24V24C38.5082 27.8478 40.0368 31.538 42.7576 34.2589C45.4784 36.9797 49.1686 38.5082 53.0164 38.5082V38.5082C49.1686 38.5082 45.4784 40.0368 42.7576 42.7576C40.0368 45.4784 38.5082 49.1686 38.5082 53.0164V53.0164Z" fill="#FFC700"/>
</g>
<path d="M261.935 93.6393C261.935 91.2207 260.974 88.9011 259.264 87.1909C257.554 85.4806 255.234 84.5198 252.815 84.5198C255.234 84.5198 257.554 83.559 259.264 81.8488C260.974 80.1386 261.935 77.819 261.935 75.4004C261.935 77.819 262.896 80.1386 264.606 81.8488C266.316 83.559 268.636 84.5198 271.054 84.5198C268.636 84.5198 266.316 85.4806 264.606 87.1909C262.896 88.9011 261.935 91.2207 261.935 93.6393Z" fill="white"/>
<defs>
<filter id="filter0_dd_3087_21875" x="0" y="0" width="77.0164" height="77.0164" filterUnits="userSpaceOnUse" color-interpolation-filters="sRGB">
<feFlood flood-opacity="0" result="BackgroundImageFix"/>
<feColorMatrix in="SourceAlpha" type="matrix" values="0 0 0 0 0 0 0 0 0 0 0 0 0 0 0 0 0 0 127 0" result="hardAlpha"/>
<feOffset/>
<feGaussianBlur stdDeviation="6"/>
<feComposite in2="hardAlpha" operator="out"/>
<feColorMatrix type="matrix" values="0 0 0 0 1 0 0 0 0 0.9 0 0 0 0 0 0 0 0 0.4 0"/>
<feBlend mode="normal" in2="BackgroundImageFix" result="effect1_dropShadow_3087_21875"/>
<feColorMatrix in="SourceAlpha" type="matrix" values="0 0 0 0 0 0 0 0 0 0 0 0 0 0 0 0 0 0 127 0" result="hardAlpha"/>
<feOffset/>
<feGaussianBlur stdDeviation="12"/>
<feComposite in2="hardAlpha" operator="out"/>
<feColorMatrix type="matrix" values="0 0 0 0 1 0 0 0 0 0.901961 0 0 0 0 0 0 0 0 0.5 0"/>
<feBlend mode="normal" in2="effect1_dropShadow_3087_21875" result="effect2_dropShadow_3087_21875"/>
<feBlend mode="normal" in="SourceGraphic" in2="effect2_dropShadow_3087_21875" result="shape"/>
</filter>
<linearGradient id="paint0_linear_3087_21875" x1="166.47" y1="48.6973" x2="166.47" y2="113.613" gradientUnits="userSpaceOnUse">
<stop stop-color="#3E3AFF"/>
<stop offset="1" stop-color="#A93AFF"/>
</linearGradient>
<linearGradient id="paint1_linear_3087_21875" x1="166.47" y1="48.6973" x2="166.47" y2="113.613" gradientUnits="userSpaceOnUse">
<stop stop-color="#3E3AFF"/>
<stop offset="1" stop-color="#A93AFF"/>
</linearGradient>
<linearGradient id="paint2_linear_3087_21875" x1="166.47" y1="48.6973" x2="166.47" y2="113.613" gradientUnits="userSpaceOnUse">
<stop stop-color="#3E3AFF"/>
<stop offset="1" stop-color="#A93AFF"/>
</linearGradient>
<linearGradient id="paint3_linear_3087_21875" x1="166.47" y1="48.6973" x2="166.47" y2="113.613" gradientUnits="userSpaceOnUse">
<stop stop-color="#3E3AFF"/>
<stop offset="1" stop-color="#A93AFF"/>
</linearGradient>
<linearGradient id="paint4_linear_3087_21875" x1="166.47" y1="48.6973" x2="166.47" y2="113.613" gradientUnits="userSpaceOnUse">
<stop stop-color="#3E3AFF"/>
<stop offset="1" stop-color="#A93AFF"/>
</linearGradient>
<linearGradient id="paint5_linear_3087_21875" x1="166.47" y1="48.6973" x2="166.47" y2="113.613" gradientUnits="userSpaceOnUse">
<stop stop-color="#3E3AFF"/>
<stop offset="1" stop-color="#A93AFF"/>
</linearGradient>
<linearGradient id="paint6_linear_3087_21875" x1="166.47" y1="48.6973" x2="166.47" y2="113.613" gradientUnits="userSpaceOnUse">
<stop stop-color="#3E3AFF"/>
<stop offset="1" stop-color="#A93AFF"/>
</linearGradient>
<linearGradient id="paint7_linear_3087_21875" x1="169.319" y1="107.254" x2="169.319" y2="173.304" gradientUnits="userSpaceOnUse">
<stop stop-color="#3E3AFF"/>
<stop offset="1" stop-color="#A93AFF"/>
</linearGradient>
<linearGradient id="paint8_linear_3087_21875" x1="169.319" y1="107.254" x2="169.319" y2="173.304" gradientUnits="userSpaceOnUse">
<stop stop-color="#3E3AFF"/>
<stop offset="1" stop-color="#A93AFF"/>
</linearGradient>
<linearGradient id="paint9_linear_3087_21875" x1="169.319" y1="107.254" x2="169.319" y2="173.304" gradientUnits="userSpaceOnUse">
<stop stop-color="#3E3AFF"/>
<stop offset="1" stop-color="#A93AFF"/>
</linearGradient>
<linearGradient id="paint10_linear_3087_21875" x1="169.319" y1="107.254" x2="169.319" y2="173.304" gradientUnits="userSpaceOnUse">
<stop stop-color="#3E3AFF"/>
<stop offset="1" stop-color="#A93AFF"/>
</linearGradient>
<linearGradient id="paint11_linear_3087_21875" x1="169.319" y1="107.254" x2="169.319" y2="173.304" gradientUnits="userSpaceOnUse">
<stop stop-color="#3E3AFF"/>
<stop offset="1" stop-color="#A93AFF"/>
</linearGradient>
<linearGradient id="paint12_linear_3087_21875" x1="169.539" y1="109.19" x2="169.539" y2="165.558" gradientUnits="userSpaceOnUse">
<stop stop-color="white"/>
<stop offset="1" stop-color="#B094FF"/>
</linearGradient>
<linearGradient id="paint13_linear_3087_21875" x1="166.784" y1="50.5975" x2="166.784" y2="126.5" gradientUnits="userSpaceOnUse">
<stop stop-color="white"/>
<stop offset="1" stop-color="#B094FF"/>
</linearGradient>
</defs>
</svg>
