<svg xmlns="http://www.w3.org/2000/svg" width="24" height="22" viewBox="0 0 24 22"><g><g><path fill="#ec3200" d="M15.52 22a.94.94 0 0 1-.35-.065c-.236-.093-.638-.366-.706-1.165l-.132-1.584c-.062-.743-.659-1.689-1.303-2.063l-1.782-1.042c-.906-.492-1.376-.931-1.51-1.415-.082-.29-.04-.585.126-.878l.059-.082c.397-.42 1.235-.495 2.243-.205l3.048.988c.295.067.433.014.467-.026.033-.04.062-.191-.065-.478l-1.328-2.986c-.414-.932-.327-2.342.197-3.214l1.668-2.772c.141-.234.16-.408.121-.473-.039-.065-.205-.118-.478-.09l-3.188.335c-1.013.107-2.325-.417-2.986-1.194L7.51 1.112c-.203-.24-.35-.276-.4-.265-.051.012-.16.119-.223.423L6.23 4.458c-.206 1-1.103 2.088-2.046 2.482L1.226 8.18c-.25.104-.371.233-.377.31-.006.075.099.219.332.354l2.797 1.627c.881.512 1.635 1.708 1.72 2.721l.27 3.256c.025.313.124.43.172.45.048.02.202 0 .433-.21l1.041-.949a.423.423 0 0 1 .569.625l-1.041.948c-.591.54-1.075.465-1.312.372-.236-.093-.639-.366-.706-1.165l-.27-3.256c-.062-.743-.659-1.69-1.303-2.063L.753 9.572c-.692-.403-.768-.887-.751-1.14C.019 8.18.157 7.71.894 7.4l2.958-1.238c.686-.287 1.393-1.146 1.545-1.874l.658-3.19C6.22.314 6.652.09 6.897.029c.245-.061.731-.076 1.252.535l2.11 2.48c.482.565 1.517.979 2.255.9l3.188-.335c.797-.084 1.143.262 1.278.476.135.214.304.675-.11 1.36l-1.669 2.771c-.385.64-.453 1.754-.149 2.435l1.328 2.986c.327.731.105 1.168-.059 1.362-.163.194-.548.492-1.328.304l-.03-.009-3.051-.987c-.752-.217-1.21-.133-1.351-.048-.037.081-.031.13-.02.171.037.133.234.428 1.114.91l1.793 1.046c.878.513 1.635 1.709 1.72 2.722l.132 1.584c.025.313.124.43.171.45.048.02.203 0 .434-.21l1.148-1.047c.754-.687 2.122-1.039 3.113-.797l1.508.366c.304.073.447.017.481-.023.034-.039.062-.19-.065-.478l-.647-1.452c-.414-.932-.326-2.342.197-3.214l.808-1.343c.14-.233.16-.408.12-.472-.039-.065-.207-.119-.478-.09l-1.533.163c-1.016.107-2.325-.417-2.986-1.194l-1.025-1.204a.42.42 0 0 1 .048-.594.42.42 0 0 1 .594.048l1.024 1.204c.482.566 1.514.98 2.255.901L22 11.542c.797-.085 1.143.262 1.278.475.135.214.304.676-.11 1.36l-.807 1.342c-.386.64-.454 1.754-.15 2.435l.648 1.452c.326.732.104 1.168-.06 1.362-.16.194-.548.493-1.328.304l-1.508-.366c-.723-.174-1.798.101-2.347.602l-1.148 1.047c-.363.35-.695.445-.949.445z"/></g></g></svg>