<svg width="18" height="22" viewBox="0 0 18 22" fill="none" xmlns="http://www.w3.org/2000/svg">
    <path d="M14.8667 5C12.5886 7.03333 12.8857 10.3333 12.8857 10.3333C12.8857 10.3333 9.5181 5.16667 10.9048 1C9.55111 3.8 3.64127 4.53333 6.28254 12.3333C2.94794 11.0667 2.98095 7 2.98095 7C2.98095 7 1 9 1 13C1 15.1217 1.83483 17.1566 3.32083 18.6569C4.80683 20.1571 6.82228 21 8.92381 21C11.0253 21 13.0408 20.1571 14.5268 18.6569C16.0128 17.1566 16.8476 15.1217 16.8476 13C16.8476 8.93333 13.9752 8.96667 14.8667 5Z" stroke="white" stroke-width="2" stroke-miterlimit="10" stroke-linecap="round" stroke-linejoin="round"/>
</svg>
