<svg width="23" height="22" viewBox="0 0 23 22" fill="none" xmlns="http://www.w3.org/2000/svg">
<path d="M19.1978 3.0721C19.0423 2.92192 18.7973 2.92455 18.6445 3.07736L15.6936 6.02826C14.5738 5.10084 13.1405 4.53964 11.5755 4.53964C8.01597 4.53964 5.11778 7.43784 5.11778 10.9974C5.11778 12.6283 5.7264 14.1222 6.73023 15.2604L4.07178 17.9188C2.32495 16.0297 1.36854 13.5873 1.36854 10.9974C1.36854 5.36958 5.9477 0.790419 11.5755 0.790419C12.877 0.790419 14.147 1.03281 15.3458 1.5097C15.5487 1.59137 15.7779 1.49125 15.8596 1.28838C15.9412 1.0855 15.8411 0.856288 15.6383 0.774611C14.3446 0.260839 12.9772 0 11.5755 0C5.51034 0 0.578125 4.93485 0.578125 10.9974C0.578125 13.9272 1.71633 16.6858 3.78723 18.7619C3.861 18.8357 3.96112 18.8779 4.06651 18.8779C4.1719 18.8779 4.27201 18.8357 4.34579 18.7619L7.28879 15.8216C8.42963 16.8386 9.93142 17.4577 11.5781 17.4577C15.1376 17.4577 18.0359 14.5595 18.0359 11C18.0359 9.28743 17.364 7.72767 16.2732 6.57102L18.929 3.91521C20.776 5.82539 21.7877 8.32575 21.7877 11C21.7877 16.6278 17.2085 21.2069 11.5808 21.2069C10.2054 21.2069 8.86963 20.9382 7.61286 20.4086C7.41262 20.3243 7.18077 20.4165 7.09382 20.6194C7.00951 20.8196 7.10436 21.0515 7.3046 21.1384C8.65885 21.7102 10.0974 22 11.5781 22C17.6433 22 22.5755 17.0652 22.5755 11.0026C22.5729 7.9806 21.3741 5.16407 19.1978 3.0721ZM11.5729 16.6673C8.44808 16.6673 5.90556 14.1248 5.90556 11C5.90556 7.87521 8.44808 5.33269 11.5729 5.33269C14.6977 5.33269 17.2402 7.87521 17.2402 11C17.2402 14.1248 14.6977 16.6673 11.5729 16.6673Z" fill="#2AFFF2"/>
</svg>
