<svg width="22" height="22" viewBox="0 0 22 22" fill="none" xmlns="http://www.w3.org/2000/svg">
<path d="M20.979 15.1633L18.1136 0.956461C18.0507 0.644126 17.8706 0.375172 17.6038 0.199483C17.3371 0.0237952 17.0182 -0.0391055 16.708 0.0237952L8.51754 1.67657C7.87332 1.8067 7.4547 2.43788 7.58485 3.08207L7.6217 3.25993L3.74123 5.22503C3.45708 5.36819 3.24665 5.61545 3.14687 5.91911C3.0471 6.22277 3.07097 6.54595 3.2163 6.83009L3.51346 7.41788L1.21641 9.71484C0.990822 9.94042 0.867188 10.2397 0.867188 10.5586C0.867188 10.8774 0.990822 11.1767 1.21641 11.4023L11.4653 21.6508C11.6909 21.8764 11.9903 22 12.3091 22C12.628 22 12.9273 21.8764 13.1529 21.6508L17.7427 17.0612L17.8251 17.02L20.0484 16.571C20.3608 16.5081 20.6276 16.3281 20.8054 16.0613C20.979 15.7924 21.0419 15.4757 20.979 15.1633ZM3.76291 6.12083C3.80847 5.98201 3.9039 5.87139 4.03188 5.80632L7.75187 3.92147L10.448 17.289C10.5109 17.6013 10.691 17.8702 10.9578 18.0459C11.1573 18.1782 11.3851 18.2455 11.6172 18.2455C11.6953 18.2455 11.7755 18.2368 11.8536 18.2216L15.4218 17.5015L11.0727 19.7009C10.8059 19.8353 10.4784 19.7291 10.3439 19.4623L3.79328 6.53293C3.72821 6.40496 3.71736 6.25747 3.76291 6.12083ZM1.67408 10.1747L3.82148 8.02737L9.01861 18.2845L1.67408 10.9403C1.46368 10.7299 1.46368 10.3851 1.67408 10.1747ZM12.6887 21.1888C12.4848 21.3927 12.1247 21.3927 11.9209 21.1888L11.1074 20.3754C11.1942 20.3537 11.281 20.3234 11.3656 20.28L15.8773 17.9982L12.6887 21.1888ZM20.2588 15.6991C20.1786 15.8205 20.0571 15.903 19.9161 15.9312L11.7256 17.5839C11.5846 17.6121 11.4393 17.5839 11.3178 17.5037C11.1964 17.4234 11.114 17.302 11.0858 17.161L8.22037 2.9541C8.16181 2.66129 8.35271 2.37498 8.64553 2.31425L16.836 0.661478C16.8707 0.654971 16.9076 0.650633 16.9423 0.650633C17.0486 0.650633 17.1505 0.680999 17.2416 0.741731C17.3631 0.821983 17.4455 0.943447 17.4737 1.08443L20.3391 15.2913C20.3694 15.4345 20.3412 15.5776 20.2588 15.6991Z" fill="#FF9500"/>
<path d="M10.8554 5.36306C10.8272 5.22208 10.8554 5.07675 10.9356 4.95746C11.0159 4.836 11.1374 4.75358 11.2784 4.72538L15.4191 3.89032C15.7098 3.83175 15.9983 4.02046 16.0568 4.31544L16.1284 4.66898L16.7661 4.54101L16.6946 4.18747C16.5644 3.54328 15.9332 3.12249 15.289 3.2548L11.1482 4.08986C10.8359 4.15277 10.5691 4.33279 10.3912 4.59958C10.2133 4.86636 10.1526 5.18304 10.2155 5.49537L11.3239 10.9916L11.9616 10.8636L10.8554 5.36306Z" fill="#FF9500"/>
<path d="M17.1983 6.66992L16.5606 6.79789L17.784 12.8646C17.8426 13.1574 17.6538 13.4437 17.3588 13.5044L13.2181 14.3395C12.9274 14.398 12.6389 14.2093 12.5804 13.9143L12.4502 13.2723L11.8125 13.4003L11.9426 14.0423C12.0576 14.6084 12.5565 14.9988 13.1118 14.9988C13.1899 14.9988 13.2679 14.9902 13.3482 14.975L17.489 14.1399C18.1332 14.0098 18.5519 13.3786 18.4217 12.7344L17.1983 6.66992Z" fill="#FF9500"/>
</svg>
