<svg width="25" height="22" viewBox="0 0 25 22" fill="none" xmlns="http://www.w3.org/2000/svg">
<path d="M23.422 7.53201C21.8928 4.96479 19.3388 2.87306 16.2335 1.63856C16.0526 1.56712 15.8718 1.49792 15.6888 1.43318C15.6977 1.37067 15.7044 1.30817 15.7044 1.24566C15.7044 0.558092 15.1463 0 14.4587 0C13.9363 0 13.4875 0.323694 13.3045 0.781329C11.1234 0.363876 8.94223 0.428615 6.9598 0.991172C4.05536 1.81715 1.92112 3.61197 0.954457 6.04302C0.543683 7.07661 0.376248 8.16154 0.42313 9.25094C-0.237681 13.8563 3.18693 18.8323 8.55825 20.9664C10.3152 21.6651 12.1324 22 13.8782 22C17.3475 22 20.531 20.6762 22.3638 18.2385L22.3214 18.2072C23.201 17.3991 23.8797 16.4302 24.3173 15.3274C25.2861 12.8964 24.9669 10.1283 23.422 7.53201ZM19.0151 7.61461C19.1 7.86464 19.2607 8.07895 19.4728 8.23075C20.5823 9.87823 20.9306 11.7467 20.2854 13.3697C19.0509 16.4749 14.6618 17.658 10.505 16.0039C8.47565 15.198 6.80576 13.8452 5.80785 12.1932C4.82556 10.5725 4.61124 8.86027 5.20285 7.37352C5.5913 6.39797 6.30346 5.60548 7.23216 5.03399C7.16072 5.19026 7.12054 5.36438 7.12054 5.54521C7.12054 6.23278 7.67866 6.79087 8.36626 6.79087C8.84401 6.79087 9.25701 6.52298 9.46686 6.13009L12.6906 6.20152C12.7419 6.43369 12.8513 6.66362 13.0053 6.87347L10.9068 9.5657C10.8756 9.62374 10.8465 9.68179 10.8242 9.74206C10.6277 10.2332 10.6657 10.7801 10.9314 11.2824C11.1859 11.7668 11.6257 12.1508 12.1659 12.3673C12.4651 12.4856 12.7754 12.5459 13.0812 12.5459C13.3313 12.5459 13.5768 12.5057 13.809 12.4276C13.8939 12.3986 13.972 12.3629 14.0501 12.3249C14.251 12.7424 14.6774 13.0326 15.1731 13.0326C15.8607 13.0326 16.4188 12.4745 16.4188 11.7869C16.4188 11.0993 15.8607 10.5412 15.1731 10.5412C15.1708 10.5412 15.1664 10.5412 15.1641 10.5412L15.1351 7.84008C15.7066 7.80213 16.2089 7.54987 16.4746 7.12572H18.5865C18.7361 7.28645 18.879 7.44942 19.0151 7.61461ZM15.9678 6.19259C16.008 6.331 16.0236 6.49843 15.9567 6.66809C15.7647 7.15251 15.0079 7.32664 14.3069 7.04759C13.6059 6.76854 13.175 6.12339 13.367 5.63896C13.434 5.47377 13.5545 5.36438 13.6773 5.29072C13.8849 5.62111 14.2332 5.90908 14.6819 6.08767C14.9543 6.19483 15.2356 6.25063 15.5079 6.25063C15.6508 6.25063 15.7892 6.23501 15.9209 6.20375C15.9366 6.20375 15.9522 6.19706 15.9678 6.19259ZM13.4808 7.34896C13.6527 7.47621 13.8447 7.58559 14.0591 7.67042C14.193 7.724 14.327 7.76195 14.4609 7.79097L14.4855 10.1573C14.3627 10.289 14.1841 10.3493 14.0702 10.3761C13.7711 10.4453 13.4049 10.4073 13.0634 10.2711C12.4026 10.0077 11.9806 9.44292 12.1414 9.0344H12.1391L13.4808 7.34896ZM11.4448 9.98985C11.4761 9.91395 11.514 9.84028 11.5609 9.77555C11.7641 10.2354 12.2083 10.6551 12.8156 10.8962C13.1259 11.019 13.4474 11.0815 13.7554 11.0815C13.9005 11.0815 14.0412 11.0659 14.1774 11.0368C14.0524 11.202 13.9675 11.3985 13.9385 11.6128C13.8358 11.6865 13.7197 11.7467 13.5902 11.7914C13.2241 11.9164 12.8044 11.9008 12.4115 11.7445C12.0186 11.5882 11.7038 11.3136 11.523 10.9699C11.3511 10.6462 11.322 10.2979 11.4448 9.98985ZM13.4675 4.64333C13.1281 4.80629 12.8736 5.06748 12.7464 5.3934C12.7285 5.43805 12.7151 5.48493 12.7017 5.53181L9.60751 5.46484C9.57179 4.94247 9.21906 4.50939 8.73685 4.35982C10.1478 3.92004 11.8154 3.86646 13.521 4.27722C13.4808 4.39554 13.463 4.51832 13.4675 4.64333ZM16.671 6.45824C16.6755 6.2618 16.6398 6.06088 16.5639 5.86443C16.6353 5.79523 16.6934 5.7171 16.7425 5.63004C17.1466 5.88453 17.5238 6.16134 17.8721 6.45601L16.671 6.45824ZM16.1754 5.26393C16.1018 5.45145 15.8874 5.52735 15.7669 5.55637C15.5191 5.61441 15.2132 5.58316 14.9275 5.46931C14.3917 5.25723 14.0323 4.7862 14.1617 4.46474C14.2443 4.25936 14.51 4.14551 14.8315 4.14551C15.0146 4.14551 15.2155 4.18123 15.4097 4.25936C15.6955 4.37321 15.9388 4.5585 16.0794 4.77281C16.1464 4.87326 16.2513 5.07418 16.1754 5.26393ZM8.80605 20.3458C5.21401 18.9171 2.53728 16.1668 1.49248 13.1598C2.88331 15.9012 5.54888 18.3456 9.0427 19.7341C10.9269 20.482 12.8803 20.8615 14.7667 20.8615C15.9901 20.8615 17.1845 20.703 18.3164 20.3815C18.5776 20.3079 18.8298 20.223 19.0776 20.1337C16.2424 21.616 12.3914 21.7701 8.80605 20.3458ZM23.6966 15.0819C22.8081 17.3165 20.8324 18.9707 18.1311 19.7386C15.3985 20.5155 12.2575 20.2922 9.28827 19.1135C4.4639 17.1937 1.29379 13.1933 1.0951 9.30675C1.11296 9.1929 1.13082 9.08128 1.15091 8.96966L1.08171 8.95627C1.07724 8.04769 1.23575 7.15028 1.57732 6.29082C2.46584 4.05622 4.44158 2.40203 7.14286 1.63409C8.21445 1.33049 9.34854 1.17869 10.5094 1.17869C11.4046 1.17869 12.3177 1.26799 13.2308 1.44658C13.3089 1.92653 13.6617 2.31273 14.1238 2.44221V3.61644C14.0724 3.64099 14.0211 3.66778 13.9742 3.6968C9.83522 2.58062 5.80115 4.04952 4.57999 7.12572C3.91025 8.81339 4.14242 10.7355 5.2341 12.5392C6.30792 14.314 8.09166 15.765 10.2572 16.6245C11.6056 17.1602 12.9808 17.4147 14.2801 17.4147C17.3162 17.4147 19.9461 16.0284 20.906 13.613C21.5579 11.9744 21.3235 10.1238 20.3859 8.44282C20.9819 8.34906 21.4374 7.83562 21.4374 7.21502C21.4374 6.52745 20.8792 5.96936 20.1916 5.96936C19.7898 5.96936 19.4348 6.15911 19.2071 6.45601H18.8589C18.2784 5.88453 17.6042 5.36215 16.8452 4.91121C16.8117 4.73709 16.7425 4.56519 16.6331 4.4C16.4165 4.07184 16.066 3.79949 15.653 3.6343C15.3606 3.51821 15.0659 3.46464 14.7913 3.47133V2.44221C15.0346 2.37301 15.249 2.2346 15.4075 2.04485C15.5995 2.11182 15.7914 2.18326 15.9834 2.25916C18.9526 3.44008 21.3883 5.43359 22.8438 7.87357C24.2838 10.2868 24.5851 12.8473 23.6966 15.0819Z" fill="#CC00FF"/>
</svg>
