<svg width="240" height="172" viewBox="0 0 240 172" fill="none" xmlns="http://www.w3.org/2000/svg">
<path d="M116.5 139C172.005 139 217 111.689 217 78C217 44.3106 172.005 17 116.5 17C60.9954 17 16 44.3106 16 78C16 111.689 60.9954 139 116.5 139Z" fill="url(#paint0_radial_4_58426)"/>
<path d="M103.76 48.9065L150 80.999V4L116.035 27.5933L129.792 37.1419L134.269 34.0333V50.9054L87 18.0985V81H103.76V48.9065Z" fill="url(#paint1_linear_4_58426)"/>
<path fill-rule="evenodd" clip-rule="evenodd" d="M141.258 77.2871L141.202 77.2248C139.025 74.8931 136.323 73.1153 133.32 72.0395C130.163 70.8589 126.516 70.2603 122.482 70.2603C118.087 70.2606 114.079 71.0349 110.57 72.5611C107.044 74.0949 104.24 76.2815 102.236 79.0609C100.233 81.8279 99.1666 85.1632 99.1939 88.5793C99.135 91.9567 100.188 95.2597 102.191 97.9797C102.944 99.0017 105.163 101.093 105.181 101.108C105.198 101.124 105.481 101.367 105.498 101.383C107.138 102.845 109.009 104.025 111.035 104.874C114.378 106.31 118.226 107.039 122.471 107.039H122.499C126.41 107.035 129.92 106.47 132.93 105.357C135.423 104.467 137.705 103.071 139.633 101.257L141.307 99.6723L132.299 92.8494L132.231 92.8744C129.691 95.5008 126.666 96.8556 123.196 96.8556C120.279 96.8542 117.911 96.0844 116.157 94.567C115.579 94.0701 115.08 93.4875 114.678 92.8395C114.139 91.6361 113.873 90.3284 113.898 89.0099C113.9 86.415 114.758 84.3168 116.446 82.7731C118.137 81.2269 120.404 80.4431 123.184 80.4431C126.492 80.4438 129.41 81.802 131.858 84.4804L131.902 84.529L141.258 77.2871ZM80.7876 71.0816C85.3804 71.0741 89.8971 71.0676 94.4903 71.0625L95.8081 71.7032L95.7487 91.0868C95.7326 96.3701 94.0306 100.478 90.5462 103.643C87.131 106.746 82.2915 108.604 76.1628 109.166C75.0615 109.268 73.9941 109.319 72.9912 109.319C71.0487 109.342 69.1113 109.113 67.2275 108.638C67.1707 108.624 65.0652 108.064 65.0089 108.043L64.9735 108.03L64.9734 108.03L64.9734 108.03C62.8299 107.228 60.8557 106.489 59.2351 105.217C55.6852 102.442 53.8685 98.1866 53.8938 92.3896L53.9862 71.1405L54.0619 71.1402C58.7335 71.1275 63.329 71.1162 68.0016 71.106L70.4106 71.7467L70.3221 91.805C70.3102 94.4906 70.8219 96.4279 71.8429 97.563C72.1421 97.894 72.4916 98.1758 72.8785 98.3979C73.1434 98.4262 73.4095 98.4409 73.6758 98.442C73.8803 98.4417 74.0903 98.4348 74.306 98.4211C76.3354 98.2893 77.911 97.5938 78.9889 96.3537C80.0671 95.1115 80.6195 93.1638 80.6298 90.5655L80.7116 71.0816H80.7876ZM53.6773 110.829C43.2579 112.212 22.3219 115.959 22.3219 115.959L18 115.15L18 71.2638L18.076 71.2635C22.7469 71.2443 27.342 71.2262 32.0136 71.2094L35.9048 71.8498L35.8386 101.431C40.7919 100.863 45.7137 100.338 50.659 99.8699L53.7823 100.503L53.7409 110.82L53.6773 110.829ZM204.11 82.6209C206.205 79.1022 210.38 71.8519 210.38 71.8519L214.104 71.2112L227.643 71.2636C227.643 71.2636 217.372 89.0207 212.034 97.4948L212.072 112.468L208.547 113.274C208.547 113.274 199.52 111.846 195.075 111.23L195.011 111.221L194.956 96.7542C191.049 89.9804 186.919 83.1295 182.62 76.2734C179.042 79.7797 175.227 83.4166 171.239 87.1207C177.545 94.6877 183.318 101.971 188.798 109.278L186.319 110.091L170.569 108.418C170.569 108.418 164.328 100.428 160.956 96.2732C160.347 96.8285 159.738 97.3819 159.128 97.9334L159.162 106.762L157.669 107.403L144.268 106.686L144.181 71.6975L145.063 71.0567L158.873 71.0724L158.92 83.2253C163.027 79.2537 170.534 71.7365 170.534 71.7365L172.533 71.0956C175.06 71.1006 177.634 71.1066 180.18 71.1126L182.208 71.1173L182.207 71.1163L182.35 71.1167C183.16 71.1185 197.061 71.1556 197.061 71.1556C197.061 71.1556 201.843 78.8414 204.11 82.6209Z" fill="url(#paint2_linear_4_58426)"/>
<g filter="url(#filter0_di_4_58426)">
<path fill-rule="evenodd" clip-rule="evenodd" d="M123.119 96.8556C120.179 96.8542 117.816 96.0926 116.031 94.5484C114.245 93.0054 113.354 90.9202 113.358 88.2927C113.36 85.6651 114.254 83.567 116.041 81.9983C117.827 80.4331 120.186 79.6503 123.119 79.6496C126.607 79.6502 129.64 81.0038 132.22 83.7104C135.172 81.5448 138.122 79.3747 141.069 77.1999C138.903 74.8742 136.21 73.1028 133.217 72.0348C130.046 70.849 126.442 70.2574 122.406 70.2603C118.01 70.2604 114.05 71.0253 110.525 72.5548C106.997 74.0891 104.229 76.2472 102.222 79.0291C100.225 81.7817 99.1633 85.1025 99.194 88.5032C99.131 91.8648 100.179 95.1531 102.176 97.8581C104.174 100.568 106.941 102.631 110.477 104.087C114.013 105.543 117.989 106.248 122.404 106.245C126.46 106.242 130.078 105.695 133.258 104.568C136.24 103.572 138.937 101.869 141.118 99.6052C138.153 97.3293 135.191 95.0856 132.231 92.8744C129.652 95.5403 126.614 96.8567 123.119 96.8556ZM78.9703 96.3275C80.0655 95.0657 80.6195 93.1252 80.63 90.4897L80.7115 71.0819C85.3044 71.0742 89.8974 71.0678 94.4905 71.0627L94.4288 90.3697C94.4121 95.6188 92.6129 99.7467 89.0293 102.869C85.446 105.99 80.4561 107.812 74.0712 108.373C67.6858 108.936 62.7238 107.955 59.1765 105.171C55.6289 102.398 53.8688 98.0772 53.8941 92.3138L53.9861 71.1403C58.6577 71.1276 63.3297 71.1162 68.0018 71.1062L67.9099 91.0876C67.8973 93.806 68.4329 95.7428 69.5167 96.898C70.5996 98.0552 72.1731 98.5544 74.2345 98.4207C76.2955 98.2867 77.8741 97.5889 78.9703 96.3275ZM18 71.2634C22.6711 71.2442 27.3422 71.2262 32.0136 71.2094L31.9421 101.877C38.1728 101.131 44.4117 100.462 50.659 99.8699L50.6165 110.036C39.7041 111.425 28.832 113.13 18 115.15V71.2634ZM158.873 71.0725L158.922 83.9654L172.533 71.0956C175.78 71.102 193.973 71.1465 197.061 71.1556C199.911 75.6699 202.757 80.3242 205.599 85.1186C208.43 80.6302 211.265 75.9944 214.104 71.2112C218.617 71.2274 223.13 71.2448 227.643 71.2635C222.418 80.5626 217.22 89.2613 212.034 97.4947C212.047 102.486 212.059 107.477 212.072 112.468C207.424 111.733 202.769 111.056 198.108 110.437L198.051 96.0161C193.531 88.5028 189.003 81.3429 184.474 74.4476C180.064 78.8131 175.653 83.0215 171.239 87.1206C177.093 94.145 182.951 101.482 188.798 109.278C183.397 108.65 177.991 108.1 172.579 107.628C169.091 103.299 165.603 99.0795 162.117 94.9696C161.07 95.9243 160.023 96.8754 158.975 97.823L159.009 106.605C154.403 106.313 149.795 106.076 145.185 105.896L145.094 71.0567C149.687 71.0608 154.28 71.0661 158.873 71.0725Z" fill="url(#paint3_linear_4_58426)"/>
</g>
<g filter="url(#filter1_dd_4_58426)">
<path fill-rule="evenodd" clip-rule="evenodd" d="M74.8727 153.952C75.3869 153.983 75.9028 153.931 76.4005 153.798C76.9409 153.663 77.4296 153.373 77.8058 152.962C77.9688 152.795 78.0846 152.589 78.1415 152.363C78.1984 152.137 78.1943 151.9 78.1296 151.676C77.9706 151.197 77.6628 150.78 77.251 150.487C77.347 150.506 77.6762 150.095 78.2386 149.255C79.0841 148.067 80.0131 146.94 81.0185 145.884C82.6442 144.176 84.4109 142.609 86.2997 141.198C88.927 139.237 91.7267 137.518 94.6644 136.061C95.1055 135.848 95.3524 135.346 95.4051 134.557C95.4564 133.752 95.3695 132.945 95.1481 132.17C95.0245 131.722 94.8465 131.29 94.618 130.884C94.4486 130.55 94.1928 130.268 93.8774 130.067C92.8812 129.435 91.4399 128.961 89.5536 128.645C87.6671 128.33 85.6004 127.94 83.3535 127.475C82.9869 127.399 82.622 127.315 82.2592 127.224C80.3772 126.749 78.5507 126.073 76.8121 125.205C76.4532 125.03 76.1338 124.783 75.8731 124.48C75.6124 124.177 75.4159 123.825 75.2954 123.444C75.0557 122.44 75.1443 121.386 75.548 120.436C76.0004 119.251 76.6053 118.129 77.3474 117.1C78.0774 116.056 78.9027 115.082 79.8128 114.191C81.1529 112.685 82.6512 111.328 84.2817 110.143C85.3653 109.341 86.4761 108.578 87.6122 107.854C88.3773 107.366 89.1539 106.896 89.9413 106.444C91.9417 105.294 93.8825 104.296 95.7636 103.452C97.3539 102.717 98.9956 102.098 100.676 101.601C101.564 101.331 102.481 101.167 103.407 101.112C104.13 101.092 104.529 101.3 104.605 101.733C104.224 103.006 103.681 104.225 102.989 105.36C102.121 106.9 101.086 108.533 99.8843 110.257C98.6811 111.982 97.4776 113.582 96.2739 115.056C95.3298 116.257 94.2817 117.372 93.1418 118.389C92.9658 118.575 92.6899 118.891 92.3141 119.338C91.9382 119.784 91.7796 120.113 91.8385 120.324C91.8971 120.535 92.2011 120.564 92.7505 120.411C93.806 120.116 95.1299 119.314 96.7219 118.004C100.253 115.021 103.329 111.539 105.853 107.667C105.603 108.238 105.331 108.815 105.039 109.397C104.739 109.993 104.397 110.568 104.017 111.117C104.241 111.135 104.467 111.118 104.686 111.066C105.521 110.771 106.262 110.257 106.832 109.579C107.641 108.705 108.358 107.749 108.971 106.728C109.617 105.682 110.167 104.58 110.613 103.435C111 102.541 111.173 101.569 111.117 100.597C111.038 100.054 110.789 99.5496 110.407 99.1559C110.001 98.6755 109.556 98.2287 109.078 97.8199C108.631 97.4439 108.383 97.331 108.334 97.4813C108.267 97.7205 108.244 97.9699 108.267 98.2172C108.284 98.5139 108.252 98.8114 108.171 99.0975L108.161 99.3053C107.8 98.5956 107.362 97.928 106.854 97.3145C106.338 96.6695 105.76 96.0761 105.129 95.5427C104.898 95.3204 104.623 95.1488 104.322 95.0389C104.021 94.929 103.7 94.8832 103.38 94.9045C102.655 94.965 101.937 95.097 101.237 95.2984C99.489 95.8182 97.7929 96.4979 96.1699 97.3288C94.2697 98.2694 92.2892 99.3691 90.2282 100.628C90.1049 100.692 89.9893 100.77 89.8836 100.861L90.0558 100.744L90.2282 100.628C92.2423 99.4682 94.3241 98.4305 96.4624 97.5201C98.4185 96.7007 100.109 96.0692 101.533 95.6254C101.955 95.5076 102.184 95.5117 102.22 95.6385C102.266 95.8083 101.895 96.026 101.105 96.2914C99.3436 96.8757 97.6223 97.5734 95.9514 98.3799C93.8972 99.3413 91.7056 100.5 89.3763 101.856L89.2492 101.93C86.9629 103.266 84.7184 104.711 82.5156 106.265C83.6174 105.321 84.7339 104.428 85.8651 103.588C86.9958 102.749 88.1207 101.968 89.2398 101.245C89.3278 101.22 89.4085 101.174 89.4755 101.111C89.4532 101.151 89.4487 101.167 89.4619 101.16C89.4669 101.158 89.4743 101.152 89.4843 101.143C89.5179 101.112 89.5582 101.089 89.6022 101.076L89.7746 100.959C89.7396 100.966 89.7063 100.98 89.6767 101C89.647 101.02 89.6217 101.046 89.6022 101.076L89.4755 101.111L89.2398 101.245C87.3471 102.457 85.3651 103.796 83.294 105.263C81.2042 106.744 79.1994 108.341 77.2893 110.048L76.3436 111.063C76.3787 111.056 76.412 111.042 76.4416 111.022C76.4712 111.002 76.4966 110.976 76.5161 110.947C77.4304 110.145 78.3928 109.353 79.4031 108.569C80.4133 107.787 81.4508 107.019 82.5156 106.265C81.5897 107.025 80.6619 107.819 79.7323 108.648C78.8032 109.477 77.9084 110.308 77.048 111.139C75.3282 112.842 73.7253 114.659 72.2502 116.577C70.9665 118.203 69.9047 119.993 69.0929 121.898C68.4056 123.594 68.2448 125.096 68.6103 126.404C68.777 126.979 69.0547 127.517 69.4277 127.985C69.8669 128.53 70.4214 128.969 71.0511 129.273C72.5551 130.113 74.1671 130.743 75.8421 131.145C77.504 131.557 79.1885 131.873 80.887 132.091L80.9131 132.094C82.5307 132.299 83.9652 132.452 85.2165 132.555C86.1596 132.605 87.0946 132.756 88.0056 133.005C87.3324 133.694 86.3733 134.702 85.1284 136.028C83.8829 137.355 82.59 138.798 81.2497 140.356C82.3179 138.965 83.3388 137.689 84.3123 136.529C84.9568 135.713 85.6701 134.954 86.4444 134.261C86.7469 134.04 86.8745 133.845 86.8272 133.676C86.7918 133.549 86.6889 133.509 86.5206 133.556C86.4856 133.563 86.4524 133.577 86.4228 133.597C86.3932 133.617 86.3679 133.643 86.3484 133.673C85.8508 134.176 85.1034 135.045 84.1061 136.28C83.1081 137.515 82.0023 138.894 80.7886 140.416C79.6231 141.878 78.4971 143.329 77.4105 144.769L77.2745 144.949C76.1936 146.298 75.2349 147.51 74.3982 148.587C73.7642 149.347 73.2169 150.176 72.7665 151.057C72.657 151.315 72.5577 151.57 72.4683 151.824C72.3813 152.045 72.3657 152.288 72.4236 152.519C72.5816 152.928 72.8946 153.258 73.2946 153.437C73.7663 153.744 74.3106 153.922 74.8727 153.952ZM77.2745 144.949L77.4011 144.803L81.2497 140.356C80.0176 141.975 78.861 143.539 77.7799 145.047C77.5296 145.374 77.2886 145.707 77.0572 146.047C76.5933 146.729 76.1679 147.436 75.7829 148.166C75.6606 148.382 75.6294 148.311 75.6894 147.953C75.7296 147.652 75.8215 147.361 75.961 147.092L77.2745 144.949Z" fill="url(#paint4_linear_4_58426)"/>
<path d="M89.8836 100.861L89.7746 100.959C89.7853 100.937 89.8004 100.916 89.8191 100.899C89.8379 100.882 89.8598 100.869 89.8836 100.861Z" fill="url(#paint5_linear_4_58426)"/>
<path d="M113.028 130.373L113.203 130.062L113.166 130.128L113.028 130.373Z" fill="url(#paint6_linear_4_58426)"/>
<path d="M113.477 129.576C113.52 129.498 113.562 129.42 113.603 129.341C113.561 129.419 113.519 129.498 113.477 129.576Z" fill="url(#paint7_linear_4_58426)"/>
<path d="M113.603 129.341C114.397 127.858 115.154 126.313 115.872 124.707C116.629 123.016 117.307 121.449 117.906 120.007C117.356 121.299 116.776 122.565 116.167 123.805C115.557 125.045 115.091 125.984 114.768 126.62C114.529 127.112 114.316 127.616 114.131 128.13C113.983 128.545 113.807 128.95 113.603 129.341Z" fill="url(#paint8_linear_4_58426)"/>
<path d="M118.474 118.619L118.428 118.7C118.425 118.692 118.423 118.683 118.424 118.674C118.424 118.665 118.427 118.656 118.431 118.648C118.435 118.64 118.442 118.634 118.449 118.628C118.456 118.623 118.465 118.62 118.474 118.619Z" fill="url(#paint9_linear_4_58426)"/>
<path fill-rule="evenodd" clip-rule="evenodd" d="M101.91 159.92C102.281 160.018 102.67 160.026 103.044 159.944C103.466 159.826 103.636 159.619 103.554 159.324C103.414 159.022 103.177 158.776 102.88 158.624C102.277 158.225 101.84 157.618 101.652 156.919C101.506 156.231 101.519 155.134 101.69 153.63C101.861 152.125 102.133 150.41 102.506 148.485C102.878 146.56 103.308 144.596 103.796 142.593C104.284 140.589 104.77 138.746 105.256 137.063C105.685 137.322 106.162 137.491 106.658 137.559C107.257 137.664 107.983 137.78 108.838 137.906C109.756 138.018 110.688 137.944 111.577 137.687C113.646 137.109 115.47 135.734 117.049 133.563C118.67 131.317 120.007 128.879 121.031 126.305C121.239 125.746 121.488 125.13 121.778 124.457C122.171 123.493 122.511 122.509 122.798 121.508C123.188 120.216 123.64 118.451 124.153 116.213C124.364 116.154 124.364 116.644 124.153 117.681C123.942 118.719 123.637 119.908 123.238 121.249C123.678 120.569 124.036 119.838 124.303 119.073C124.685 118.079 125.01 117.124 125.278 116.206C125.544 115.289 125.703 114.755 125.752 114.605C125.959 113.935 126.064 113.238 126.063 112.538C126.078 111.802 125.988 111.069 125.795 110.359C125.578 109.498 125.1 108.725 124.426 108.146C123.772 107.601 122.854 107.493 121.672 107.823C121.123 107.977 120.432 108.477 119.599 109.324C118.766 110.172 117.866 111.186 116.898 112.367C115.93 113.548 114.994 114.72 114.09 115.883C113.186 117.046 112.373 118.048 111.651 118.886C111.943 118.304 112.216 117.772 112.469 117.292C112.708 116.844 112.908 116.377 113.069 115.895C112.854 115.454 112.289 115.02 111.374 114.593C110.671 114.211 109.876 114.031 109.077 114.074C108.814 114.098 108.553 114.148 108.299 114.223C107.708 114.388 107.466 114.66 107.572 115.04C107.635 115.238 107.744 115.418 107.889 115.566C108.054 115.748 108.229 115.927 108.415 116.103C107.946 116.871 107.46 117.781 106.958 118.832C106.455 119.883 105.973 120.928 105.512 121.967C105.051 123.007 104.668 123.876 104.363 124.576C104.185 124.934 104.038 125.307 103.923 125.689C103.855 125.911 103.815 126.14 103.806 126.371C103.813 126.483 103.833 126.511 103.864 126.457C104.053 125.994 104.393 125.216 104.885 124.123C105.376 123.03 105.928 121.829 106.541 120.519C107.099 119.315 107.716 118.139 108.392 116.997C107.416 119.046 106.397 121.47 105.336 124.27C104.274 127.071 103.243 130.023 102.244 133.124C101.244 136.227 100.377 139.235 99.643 142.148C98.9765 144.718 98.462 147.325 98.102 149.955C97.8084 152.244 97.8268 153.981 98.1572 155.163C98.6766 157.021 99.5237 158.424 100.698 159.37C101.056 159.642 101.471 159.829 101.91 159.92ZM110.952 134.106C110.408 134.767 109.817 135.389 109.184 135.966C109.08 136.062 108.958 136.137 108.825 136.186C108.692 136.235 108.551 136.257 108.41 136.25C108.111 136.243 107.951 136.197 107.927 136.112C107.904 136.028 107.949 135.947 108.064 135.869C109.032 135.259 109.904 134.509 110.652 133.643C111.004 133.236 111.342 132.818 111.666 132.388C112.106 131.816 112.542 131.176 112.975 130.468L113.02 130.387C113.011 130.388 113.003 130.391 112.995 130.396C112.991 130.399 112.988 130.402 112.985 130.405C112.984 130.406 112.983 130.407 112.982 130.408C112.981 130.409 112.981 130.41 112.98 130.411C112.979 130.412 112.978 130.414 112.977 130.416C112.973 130.424 112.97 130.432 112.97 130.441C112.97 130.445 112.97 130.448 112.97 130.452C112.971 130.457 112.972 130.462 112.975 130.468C112.569 131.129 112.133 131.77 111.666 132.388C110.23 134.257 108.752 135.403 107.233 135.828C106.963 135.883 106.685 135.877 106.417 135.81C106.15 135.742 105.902 135.616 105.69 135.439C105.954 134.592 106.178 133.847 106.363 133.203C106.503 132.685 106.681 132.179 106.896 131.688C107.805 129.422 108.895 127.234 110.155 125.143C111.503 122.878 112.94 120.689 114.467 118.577C115.994 116.466 117.422 114.61 118.751 113.01C118.923 112.755 119.12 112.517 119.338 112.3C119.534 112.108 119.705 111.947 119.851 111.815C119.987 112.251 120.01 112.714 119.92 113.161C119.824 113.866 119.688 114.565 119.515 115.255C119.428 115.599 119.305 116.054 119.145 116.622C118.964 117.25 118.749 117.869 118.502 118.475C118.783 117.85 119.048 117.253 119.298 116.681C119.502 116.239 119.671 115.78 119.803 115.311C119.55 116.887 119.136 118.434 118.566 119.925C117.965 121.527 117.306 123.077 116.587 124.575C115.867 126.074 115.175 127.428 114.512 128.638C113.848 129.848 113.312 130.783 112.906 131.443C112.329 132.383 111.676 133.274 110.952 134.106Z" fill="url(#paint10_linear_4_58426)"/>
<path fill-rule="evenodd" clip-rule="evenodd" d="M129.404 131.341C128.677 131.018 127.997 130.6 127.383 130.096C127.031 129.8 126.769 129.412 126.626 128.975C126.542 128.673 126.512 128.358 126.536 128.044C126.559 127.72 126.565 127.377 126.556 127.015C126.619 125.086 126.909 123.171 127.421 121.31C127.969 119.199 128.621 117.094 129.378 114.992C130.133 112.892 130.808 111.031 131.402 109.407C131.294 109.347 131.181 109.105 131.063 108.682C130.888 107.999 130.818 107.293 130.854 106.589C130.879 105.786 131.127 105.41 131.597 105.46C132.278 105.462 132.955 105.547 133.615 105.716C134.392 105.892 135.145 106.163 135.855 106.524C136.158 106.655 136.429 106.849 136.65 107.094C136.872 107.338 137.038 107.627 137.139 107.941C137.179 108.14 137.19 108.344 137.172 108.546L137.108 108.564C136.306 110.132 135.593 111.745 134.975 113.394C134.32 115.125 133.776 116.723 133.343 118.187C133.006 119.26 132.73 120.352 132.515 121.457C132.762 121.23 132.99 120.983 133.197 120.72C133.433 120.427 133.679 120.085 133.935 119.694C133.797 119.848 133.64 119.984 133.467 120.098C133.331 120.182 133.299 120.191 133.372 120.125C134.325 118.804 135.351 117.537 136.444 116.33C137.641 114.995 138.891 113.723 140.193 112.517C141.388 111.4 142.646 110.353 143.961 109.381L144.088 109.346C144.172 109.322 144.134 109.39 143.974 109.548C143.813 109.707 143.602 109.891 143.342 110.1C143.082 110.31 142.737 110.622 142.307 111.038C141.877 111.455 141.398 111.942 140.871 112.498C141.391 112.08 141.921 111.613 142.46 111.098C142.994 110.588 143.575 110.128 144.194 109.726C144.367 109.592 144.55 109.472 144.743 109.368C144.788 109.342 144.834 109.317 144.882 109.294C145.288 108.191 145.668 107.175 146.021 106.245C146.571 104.793 146.951 103.788 147.159 103.229C146.433 104.707 145.852 105.928 145.416 106.892C144.979 107.857 144.719 108.351 144.635 108.373C144.592 108.385 144.787 107.739 145.22 106.434C145.652 105.13 146.404 102.894 147.478 99.7257C148.06 99.6163 148.66 99.6603 149.221 99.8532C149.948 100.052 150.653 100.324 151.325 100.665C151.989 101.004 152.379 101.384 152.498 101.806C152.283 102.504 151.931 103.445 151.442 104.628C150.954 105.812 150.377 107.089 149.712 108.457C149.047 109.828 148.416 111.154 147.819 112.435C147.221 113.718 146.712 114.828 146.29 115.765C146.382 115.602 146.755 115.066 147.411 114.154C148.067 113.243 148.884 112.093 149.862 110.703C150.84 109.315 151.88 107.864 152.982 106.349C154.084 104.835 155.151 103.399 156.183 102.04C157.214 100.682 158.106 99.5568 158.859 98.663C159.61 97.7701 160.113 97.2881 160.367 97.2171C160.729 97.1902 161.089 97.2811 161.395 97.4762C161.923 97.7404 162.43 98.0438 162.912 98.384C163.393 98.7088 163.832 99.0906 164.22 99.5211C164.555 99.9057 164.662 100.206 164.54 100.422C164.358 100.746 163.933 101.548 163.266 102.827C162.599 104.106 161.837 105.616 160.981 107.358C160.124 109.1 159.328 110.813 158.592 112.498C157.972 113.873 157.443 115.287 157.009 116.731L160.665 112.705C160.943 112.4 160.949 112.421 160.682 112.768C160.415 113.116 160.081 113.551 159.681 114.072C159.28 114.594 158.983 114.996 158.788 115.278C158.67 115.509 158.578 115.752 158.513 116.003C158.421 116.326 158.42 116.405 158.512 116.243C159.099 115.374 159.731 114.536 160.406 113.733C161.188 112.787 162.02 111.814 162.903 110.816C163.785 109.818 164.572 108.927 165.263 108.142C164.609 108.734 163.976 109.321 163.364 109.902C162.752 110.482 162.116 111.138 161.456 111.869L162.165 110.988C162.583 110.449 163.032 109.935 163.512 109.451C164.111 108.829 164.728 108.224 165.361 107.636C165.82 107.193 166.31 106.782 166.827 106.407L165.326 108.124C165.732 107.784 166.155 107.426 166.598 107.052C167.04 106.679 167.5 106.288 167.978 105.881C168.172 105.722 168.389 105.592 168.621 105.496C169.001 105.39 169.098 105.613 168.911 106.167C168.695 106.766 168.344 107.308 167.885 107.751C166.896 108.691 165.994 109.72 165.193 110.825C164.198 112.151 163.179 113.596 162.136 115.162C161.094 116.728 160.102 118.269 159.16 119.784C158.217 121.3 157.426 122.625 156.787 123.759C155.7 123.289 155.035 122.701 154.792 121.994C154.549 121.289 154.351 120.661 154.197 120.112L154.127 119.858C154.084 119.699 154.05 119.537 154.026 119.374C153.995 119.131 154.007 118.885 154.062 118.647C153.994 118.539 153.9 118.452 153.787 118.393C153.675 118.334 153.549 118.307 153.422 118.314C153.097 118.291 152.932 118.189 152.927 118.008C152.898 116.951 153.041 115.896 153.352 114.884C153.69 113.652 154.112 112.351 154.617 110.98C155.122 109.609 155.649 108.278 156.199 106.987C156.748 105.696 157.213 104.587 157.591 103.661C157.861 103.041 158.094 102.406 158.289 101.758C157.942 102.311 157.359 103.237 156.538 104.536C155.717 105.835 154.779 107.327 153.725 109.009C152.67 110.694 151.583 112.465 150.464 114.325C149.345 116.186 148.301 117.992 147.333 119.742C146.365 121.492 145.569 123.046 144.948 124.403C144.325 125.761 143.976 126.792 143.9 127.496C143.521 127.549 143.135 127.508 142.777 127.375C142.418 127.243 142.098 127.024 141.844 126.738C141.272 126.209 140.849 125.538 140.618 124.793C140.464 124.245 140.552 123.253 140.879 121.818C141.206 120.384 141.666 118.73 142.259 116.857C142.684 115.51 143.133 114.163 143.606 112.816C143.505 112.918 143.402 113.019 143.298 113.118C142.831 113.567 142.129 114.355 141.192 115.482C140.254 116.609 139.197 117.917 138.021 119.407C136.843 120.897 135.664 122.421 134.484 123.98C133.303 125.539 132.257 126.97 131.346 128.271C130.635 129.253 129.987 130.278 129.404 131.341ZM133.935 119.694C134.141 119.534 134.331 119.356 134.503 119.16C134.693 118.948 134.825 118.809 134.898 118.742C135.547 117.97 136.433 117.028 137.558 115.916C138.682 114.806 139.786 113.667 140.871 112.498C139.381 113.776 137.959 115.131 136.61 116.557C135.597 117.659 134.705 118.705 133.935 119.694Z" fill="url(#paint11_linear_4_58426)"/>
<path d="M135.947 101.718C135.177 101.551 134.454 101.217 133.829 100.739C133.037 100.186 132.57 99.6567 132.429 99.1493C132.311 98.7276 132.442 98.4633 132.822 98.3565C133.08 98.2904 133.343 98.2511 133.609 98.2392C133.918 98.2207 134.224 98.1695 134.523 98.0864C134.968 97.9384 135.366 97.674 135.674 97.3206C136.02 96.9426 136.462 96.6657 136.953 96.5196C137.544 96.3545 138.121 96.6259 138.683 97.3338C138.869 97.5103 138.846 97.8354 138.614 98.3092C138.37 98.8043 138.078 99.2746 137.743 99.7136C137.467 100.089 137.168 100.446 136.847 100.783C137.2 100.61 137.503 100.349 137.728 100.025C138.06 99.6407 138.355 99.2266 138.611 98.788C138.278 99.5796 137.777 100.29 137.144 100.871C136.526 101.431 136.127 101.713 135.947 101.718Z" fill="url(#paint12_linear_4_58426)"/>
</g>
<defs>
<filter id="filter0_di_4_58426" x="6" y="58.2603" width="233.643" height="68.8901" filterUnits="userSpaceOnUse" color-interpolation-filters="sRGB">
<feFlood flood-opacity="0" result="BackgroundImageFix"/>
<feColorMatrix in="SourceAlpha" type="matrix" values="0 0 0 0 0 0 0 0 0 0 0 0 0 0 0 0 0 0 127 0" result="hardAlpha"/>
<feOffset/>
<feGaussianBlur stdDeviation="6"/>
<feComposite in2="hardAlpha" operator="out"/>
<feColorMatrix type="matrix" values="0 0 0 0 1 0 0 0 0 0.703917 0 0 0 0 0.129167 0 0 0 0.54 0"/>
<feBlend mode="normal" in2="BackgroundImageFix" result="effect1_dropShadow_4_58426"/>
<feBlend mode="normal" in="SourceGraphic" in2="effect1_dropShadow_4_58426" result="shape"/>
<feColorMatrix in="SourceAlpha" type="matrix" values="0 0 0 0 0 0 0 0 0 0 0 0 0 0 0 0 0 0 127 0" result="hardAlpha"/>
<feOffset/>
<feGaussianBlur stdDeviation="2"/>
<feComposite in2="hardAlpha" operator="arithmetic" k2="-1" k3="1"/>
<feColorMatrix type="matrix" values="0 0 0 0 1 0 0 0 0 1 0 0 0 0 1 0 0 0 0.65 0"/>
<feBlend mode="normal" in2="shape" result="effect2_innerShadow_4_58426"/>
</filter>
<filter id="filter1_dd_4_58426" x="56.4199" y="82.8994" width="124.584" height="89.1006" filterUnits="userSpaceOnUse" color-interpolation-filters="sRGB">
<feFlood flood-opacity="0" result="BackgroundImageFix"/>
<feColorMatrix in="SourceAlpha" type="matrix" values="0 0 0 0 0 0 0 0 0 0 0 0 0 0 0 0 0 0 127 0" result="hardAlpha"/>
<feOffset/>
<feGaussianBlur stdDeviation="6"/>
<feComposite in2="hardAlpha" operator="out"/>
<feColorMatrix type="matrix" values="0 0 0 0 0.722667 0 0 0 0 0.133333 0 0 0 0 1 0 0 0 0.94 0"/>
<feBlend mode="normal" in2="BackgroundImageFix" result="effect1_dropShadow_4_58426"/>
<feColorMatrix in="SourceAlpha" type="matrix" values="0 0 0 0 0 0 0 0 0 0 0 0 0 0 0 0 0 0 127 0" result="hardAlpha"/>
<feOffset/>
<feGaussianBlur stdDeviation="2"/>
<feComposite in2="hardAlpha" operator="out"/>
<feColorMatrix type="matrix" values="0 0 0 0 0.721568 0 0 0 0 0.133333 0 0 0 0 1 0 0 0 0.63 0"/>
<feBlend mode="normal" in2="effect1_dropShadow_4_58426" result="effect2_dropShadow_4_58426"/>
<feBlend mode="normal" in="SourceGraphic" in2="effect2_dropShadow_4_58426" result="shape"/>
</filter>
<radialGradient id="paint0_radial_4_58426" cx="0" cy="0" r="1" gradientUnits="userSpaceOnUse" gradientTransform="translate(116.5 78) rotate(90) scale(61 100.5)">
<stop stop-color="#FF41B3" stop-opacity="0.35"/>
<stop offset="1" stop-color="#B71DFF" stop-opacity="0"/>
</radialGradient>
<linearGradient id="paint1_linear_4_58426" x1="143" y1="72" x2="137.5" y2="6.5" gradientUnits="userSpaceOnUse">
<stop stop-color="#B61CFF" stop-opacity="0"/>
<stop offset="0.572917" stop-color="#5832ED" stop-opacity="0.95"/>
<stop offset="1" stop-color="#59E1FF"/>
</linearGradient>
<linearGradient id="paint2_linear_4_58426" x1="127" y1="116" x2="127" y2="72" gradientUnits="userSpaceOnUse">
<stop stop-color="#C831B0"/>
<stop offset="1" stop-color="#3E1FFF"/>
</linearGradient>
<linearGradient id="paint3_linear_4_58426" x1="121.696" y1="67.0912" x2="121.696" y2="114" gradientUnits="userSpaceOnUse">
<stop stop-color="#FFD687"/>
<stop offset="0.594226" stop-color="#FF9F0E"/>
<stop offset="1" stop-color="#FFC69F"/>
</linearGradient>
<linearGradient id="paint4_linear_4_58426" x1="114.322" y1="95.277" x2="114.322" y2="143.607" gradientUnits="userSpaceOnUse">
<stop offset="0.369792" stop-color="white"/>
<stop offset="1" stop-color="#F8CAFF"/>
</linearGradient>
<linearGradient id="paint5_linear_4_58426" x1="114.322" y1="95.277" x2="114.322" y2="143.607" gradientUnits="userSpaceOnUse">
<stop offset="0.369792" stop-color="white"/>
<stop offset="1" stop-color="#F8CAFF"/>
</linearGradient>
<linearGradient id="paint6_linear_4_58426" x1="114.322" y1="95.277" x2="114.322" y2="143.607" gradientUnits="userSpaceOnUse">
<stop offset="0.369792" stop-color="white"/>
<stop offset="1" stop-color="#F8CAFF"/>
</linearGradient>
<linearGradient id="paint7_linear_4_58426" x1="114.322" y1="95.277" x2="114.322" y2="143.607" gradientUnits="userSpaceOnUse">
<stop offset="0.369792" stop-color="white"/>
<stop offset="1" stop-color="#F8CAFF"/>
</linearGradient>
<linearGradient id="paint8_linear_4_58426" x1="114.322" y1="95.277" x2="114.322" y2="143.607" gradientUnits="userSpaceOnUse">
<stop offset="0.369792" stop-color="white"/>
<stop offset="1" stop-color="#F8CAFF"/>
</linearGradient>
<linearGradient id="paint9_linear_4_58426" x1="114.322" y1="95.277" x2="114.322" y2="143.607" gradientUnits="userSpaceOnUse">
<stop offset="0.369792" stop-color="white"/>
<stop offset="1" stop-color="#F8CAFF"/>
</linearGradient>
<linearGradient id="paint10_linear_4_58426" x1="114.322" y1="95.277" x2="114.322" y2="143.607" gradientUnits="userSpaceOnUse">
<stop offset="0.369792" stop-color="white"/>
<stop offset="1" stop-color="#F8CAFF"/>
</linearGradient>
<linearGradient id="paint11_linear_4_58426" x1="114.322" y1="95.277" x2="114.322" y2="143.607" gradientUnits="userSpaceOnUse">
<stop offset="0.369792" stop-color="white"/>
<stop offset="1" stop-color="#F8CAFF"/>
</linearGradient>
<linearGradient id="paint12_linear_4_58426" x1="114.322" y1="95.277" x2="114.322" y2="143.607" gradientUnits="userSpaceOnUse">
<stop offset="0.369792" stop-color="white"/>
<stop offset="1" stop-color="#F8CAFF"/>
</linearGradient>
</defs>
</svg>
