<svg width="25" height="24" viewBox="0 0 25 24" fill="none" xmlns="http://www.w3.org/2000/svg">
<path fill-rule="evenodd" clip-rule="evenodd" d="M12.7905 23C18.8657 23 23.7905 18.0751 23.7905 12C23.7905 5.92487 18.8657 1 12.7905 1C6.71539 1 1.79053 5.92487 1.79053 12C1.79053 18.0751 6.71539 23 12.7905 23ZM12.7905 24C19.4179 24 24.7905 18.6274 24.7905 12C24.7905 5.37258 19.4179 0 12.7905 0C6.16311 0 0.790527 5.37258 0.790527 12C0.790527 18.6274 6.16311 24 12.7905 24Z" fill="#794AFF"/>
<path fill-rule="evenodd" clip-rule="evenodd" d="M12.7905 6.87229C12.3708 8.04126 11.696 9.11536 10.8009 10.0104C9.90589 10.9055 8.83178 11.5803 7.66282 12C8.83178 12.4197 9.90589 13.0945 10.8009 13.9896C11.696 14.8846 12.3708 15.9587 12.7905 17.1277C13.2103 15.9587 13.8851 14.8846 14.7801 13.9896C15.6752 13.0945 16.7493 12.4197 17.9182 12C16.7493 11.5803 15.6752 10.9055 14.7801 10.0104C13.8851 9.11536 13.2103 8.04126 12.7905 6.87229ZM12.2905 4C12.2905 5.98912 11.5004 7.89678 10.0938 9.3033C8.68731 10.7098 6.77965 11.5 4.79053 11.5V12.5C6.77965 12.5 8.68731 13.2902 10.0938 14.6967C11.5004 16.1032 12.2905 18.0109 12.2905 20H13.2905C13.2905 18.0109 14.0807 16.1032 15.4872 14.6967C16.8937 13.2902 18.8014 12.5 20.7905 12.5V11.5C18.8014 11.5 16.8937 10.7098 15.4872 9.3033C14.0807 7.89678 13.2905 5.98912 13.2905 4H12.2905Z" fill="#794AFF"/>
</svg>
