<?xml version="1.0"?>
<svg xmlns="http://www.w3.org/2000/svg" width="33" height="35" viewBox="0 0 33 35">
  <g>
    <g>
      <path fill="#00c2b2" d="M31.416 27.17c.392 0 .712.32.712.718 0 .397-.32.718-.717.718h-9.15c-.368 2.899-2.845 5.148-5.838 5.148-2.997 0-5.47-2.25-5.837-5.148H1.717a.716.716 0 1 1 0-1.436h2.534V13.037C4.251 6.402 9.649 1 16.28 1c6.63 0 12.029 5.402 12.029 12.037v7.9a.716.716 0 1 1-1.435 0v-7.9c0-5.846-4.752-10.602-10.594-10.602-5.843 0-10.595 4.756-10.595 10.602V27.17h5.379a.606.606 0 0 1 .373 0h9.973a.605.605 0 0 1 .373 0zm-10.609 1.436h-8.773a4.46 4.46 0 0 0 4.39 3.712 4.447 4.447 0 0 0 4.383-3.712z"/>
      <path fill="none" stroke="#00c2b2" stroke-miterlimit="20" d="M31.416 27.17c.392 0 .712.32.712.718 0 .397-.32.718-.717.718h-9.15c-.368 2.899-2.845 5.148-5.838 5.148-2.997 0-5.47-2.25-5.837-5.148H1.717a.716.716 0 1 1 0-1.436h2.534V13.037C4.251 6.402 9.649 1 16.28 1c6.63 0 12.029 5.402 12.029 12.037v7.9a.716.716 0 1 1-1.435 0v-7.9c0-5.846-4.752-10.602-10.594-10.602-5.843 0-10.595 4.756-10.595 10.602V27.17h5.379a.606.606 0 0 1 .373 0h9.973a.605.605 0 0 1 .373 0zm-10.609 1.436h-8.773a4.46 4.46 0 0 0 4.39 3.712 4.447 4.447 0 0 0 4.383-3.712z"/>
    </g>
  </g>
</svg>
