<svg width="23" height="22" viewBox="0 0 23 22" fill="none" xmlns="http://www.w3.org/2000/svg">
<path d="M20.9681 3.15061L4.70186 0.0407562C3.48853 -0.192283 2.31269 0.597925 2.08234 1.80062L0.0440446 12.4668C-0.0684501 13.0481 0.0574347 13.64 0.397597 14.1329C0.735081 14.6231 1.24399 14.9553 1.82789 15.0678L9.55252 16.5436C10.1552 17.4249 13.38 21.8634 17.2745 22C17.2798 22 17.2852 22 17.2879 22C17.4593 22 17.612 21.8902 17.6682 21.7295C17.7245 21.5634 17.6682 21.3759 17.5236 21.2741C16.3477 20.4223 15.9379 18.6276 15.804 17.7383L18.0941 18.1749C19.3074 18.408 20.4833 17.6178 20.7136 16.4151L22.7519 5.74888C22.9822 4.54887 22.1814 3.38097 20.9681 3.15061ZM21.9644 5.60155L19.9261 16.2678C19.7788 17.0339 19.0262 17.5374 18.2468 17.3901L15.421 16.849C15.3005 16.8249 15.1746 16.8598 15.0808 16.9428C14.9871 17.0258 14.9362 17.1437 14.9442 17.2669C14.9496 17.3767 15.0862 19.4955 16.171 21.0196C12.8551 20.1009 10.1632 16.0106 10.1311 15.9651C10.0721 15.874 9.97572 15.8097 9.86859 15.7883L1.98056 14.2802C1.60558 14.2079 1.27881 13.9936 1.05917 13.6776C0.84222 13.3642 0.761867 12.9865 0.834185 12.6168L2.87248 1.9506C3.00105 1.27292 3.60102 0.804185 4.27599 0.804185C4.36706 0.804185 4.45812 0.812214 4.54919 0.830965L20.8154 3.94082C21.5975 4.08815 22.1118 4.83279 21.9644 5.60155Z" fill="#2AFFF2"/>
<path d="M16.1147 6.9551C15.3808 6.14081 14.5987 5.77651 13.7952 5.87562C13.5755 5.9024 13.4175 6.10331 13.447 6.32296C13.4737 6.5426 13.6746 6.70062 13.8943 6.67115C14.4219 6.60419 14.963 6.87741 15.5067 7.47742C15.7986 7.86849 15.8844 8.27296 15.7692 8.71493C15.3246 10.4078 12.0997 12.2025 10.5971 12.8962C9.51233 11.6453 7.31332 8.6828 7.60795 6.95778C7.68563 6.50778 7.92936 6.17562 8.35523 5.93722C9.09984 5.61579 9.70517 5.59168 10.1578 5.86757C11.0953 6.4408 11.2105 8.11494 11.2105 8.13101C11.2239 8.35334 11.414 8.51939 11.6337 8.50867C11.856 8.49528 12.0247 8.30511 12.0113 8.08546C12.006 7.99975 11.8747 5.9801 10.5783 5.18455C9.88463 4.76133 9.02485 4.76936 8.01775 5.20865C8.00704 5.21401 7.99632 5.21938 7.98829 5.22474C7.32939 5.58099 6.93566 6.11938 6.81781 6.82385C6.37854 9.41406 10.04 13.4802 10.1953 13.6516C10.2757 13.74 10.3828 13.7829 10.4926 13.7829H10.4953C10.498 13.7829 10.498 13.7829 10.5007 13.7829C10.5542 13.7829 10.6078 13.7721 10.6614 13.7507C10.873 13.6596 15.8844 11.4605 16.5513 8.91851C16.7334 8.22743 16.5941 7.57385 16.1415 6.9792C16.1308 6.97116 16.1227 6.96314 16.1147 6.9551Z" fill="#2AFFF2"/>
</svg>
