<svg width="24" height="24" viewBox="0 0 24 24" fill="none" xmlns="http://www.w3.org/2000/svg">
  <path d="M12 4.6875C10.7077 4.6875 9.65625 3.63609 9.65625 2.34375C9.65625 1.05141 10.7077 0 12 0C13.2923 0 14.3438 1.05141 14.3438 2.34375C14.3438 3.63609 13.2923 4.6875 12 4.6875Z" fill="white"/>
  <path d="M14.9071 4.70898C14.219 5.5532 13.1715 6.09353 12 6.09353C10.8285 6.09353 9.78103 5.5532 9.09286 4.70898C7.82616 4.87117 6.84375 5.95534 6.84375 7.26541V12.8904C6.84375 13.9743 7.66556 14.8699 8.71875 14.9868V22.3592C8.71875 23.2638 9.45473 23.9998 10.3594 23.9998H13.6406C14.5453 23.9998 15.2812 23.2638 15.2812 22.3592V14.9868C16.3344 14.8699 17.1562 13.9743 17.1562 12.8904V7.26541C17.1562 5.95534 16.1738 4.87117 14.9071 4.70898Z" fill="white"/>
</svg>
