<svg width="24" height="24" viewBox="0 0 24 24" fill="none" xmlns="http://www.w3.org/2000/svg">
  <path d="M17.1508 16.5537L15.9499 6.94618C15.8446 6.10365 15.3371 5.39677 14.6354 5.00879C13.9576 5.6792 13.0264 6.09404 12 6.09404C10.9736 6.09404 10.0425 5.6792 9.36465 5.00879C8.66293 5.39682 8.15546 6.10365 8.05013 6.94618L6.84919 16.5537C6.82416 16.7539 6.88631 16.9551 7.01977 17.1063C7.15322 17.2574 7.34517 17.3441 7.54688 17.3441H8.76652L9.18924 23.3466C9.21516 23.7148 9.52149 24.0003 9.89063 24.0003H14.1094C14.4785 24.0003 14.7849 23.7148 14.8108 23.3466L15.2335 17.3441H16.4531C16.6548 17.3441 16.8468 17.2574 16.9802 17.1063C17.1137 16.955 17.1759 16.7539 17.1508 16.5537Z" fill="white"/>
  <path d="M12 4.6875C10.7077 4.6875 9.65625 3.63609 9.65625 2.34375C9.65625 1.05141 10.7077 0 12 0C13.2923 0 14.3438 1.05141 14.3438 2.34375C14.3438 3.63609 13.2923 4.6875 12 4.6875Z" fill="white"/>
</svg>
