<svg width="28" height="22" viewBox="0 0 28 22" fill="none" xmlns="http://www.w3.org/2000/svg">
<path d="M26.7556 4.65023C26.5042 4.65023 26.3012 4.8532 26.3012 5.10465V14.2415C26.3012 14.6596 25.9619 14.9989 25.5439 14.9989H24.7532V6.34069L24.7563 6.17406C24.7835 3.71413 24.7351 3.61112 24.6714 3.47782C23.7414 1.49352 18.5644 0 12.627 0C6.82891 0 1.63972 1.4299 0.558268 3.32635C0.403774 3.59597 0.424993 3.94135 0.440139 4.22007C0.443169 4.27763 0.446185 4.32913 0.446185 4.37154C0.446185 4.62299 0.649148 4.82596 0.900579 4.82596C1.15201 4.82596 1.35497 4.62299 1.35497 4.37154C1.35497 4.31398 1.35195 4.24429 1.34589 4.16552C1.33984 4.05646 1.32772 3.83227 1.34589 3.77471C2.13351 2.3963 6.66835 0.905808 12.6239 0.905808C18.4523 0.905808 23.0871 2.40539 23.8263 3.82016C23.8414 3.95648 23.8626 4.41395 23.8475 5.88627L8.47684 5.91959L0.497697 5.93775V20.3338C0.497697 21.2517 1.24593 22 2.16381 22H16.977C17.2285 22 17.4314 21.797 17.4314 21.5456C17.4314 21.2941 17.2285 21.0912 16.977 21.0912H2.16381C1.74576 21.0912 1.40648 20.7519 1.40648 20.3338V19.6461H23.8444V20.3338C23.8444 20.7519 23.5051 21.0912 23.0871 21.0912H21.3816C21.1302 21.0912 20.9272 21.2941 20.9272 21.5456C20.9272 21.797 21.1302 22 21.3816 22H23.0871C24.005 22 24.7532 21.2517 24.7532 20.3338V15.9077H25.5439C26.4618 15.9077 27.21 15.1595 27.21 14.2415V5.10465C27.21 4.85623 27.007 4.65023 26.7556 4.65023ZM16.9195 18.7373V8.79759C16.9195 8.54614 16.7165 8.34317 16.4651 8.34317C16.2137 8.34317 16.0107 8.54614 16.0107 8.79759V18.7373H1.40648V6.84356L8.02548 6.82843V16.3743C8.02548 16.6257 8.22844 16.8287 8.47987 16.8287C8.7313 16.8287 8.93427 16.6257 8.93427 16.3743V6.8254L23.8475 6.79208V18.7342H16.9195V18.7373Z" fill="#F05B33"/>
<path d="M6.23908 10.2754H3.28252C3.03109 10.2754 2.82812 10.4784 2.82812 10.7298C2.82812 10.9813 3.03109 11.1842 3.28252 11.1842H5.39089C4.58813 12.4839 4.11557 13.7956 3.98228 15.1013C3.95805 15.3497 4.13979 15.5739 4.3882 15.5981C4.40334 15.6012 4.4185 15.6012 4.43364 15.6012C4.66387 15.6012 4.86077 15.4255 4.885 15.1922C5.02435 13.8077 5.60597 12.396 6.60867 10.9934C6.70863 10.854 6.72074 10.6722 6.64198 10.5208C6.56625 10.3723 6.40872 10.2754 6.23908 10.2754Z" fill="#F05B33"/>
<path d="M13.95 10.2754H10.9935C10.742 10.2754 10.5391 10.4784 10.5391 10.7298C10.5391 10.9813 10.742 11.1842 10.9935 11.1842H13.1018C12.2991 12.4839 11.8265 13.7956 11.6932 15.1013C11.669 15.3497 11.8507 15.5739 12.0991 15.5981C12.1143 15.6012 12.1294 15.6012 12.1446 15.6012C12.3748 15.6012 12.5717 15.4255 12.596 15.1922C12.7353 13.8077 13.3169 12.396 14.3196 10.9934C14.4196 10.854 14.4317 10.6722 14.3529 10.5208C14.2742 10.3723 14.1197 10.2754 13.95 10.2754Z" fill="#F05B33"/>
<path d="M21.8646 10.5247C21.7859 10.3732 21.6314 10.2793 21.4617 10.2793H18.5052C18.2537 10.2793 18.0508 10.4823 18.0508 10.7337C18.0508 10.9852 18.2537 11.1881 18.5052 11.1881H20.6135C19.8108 12.4878 19.3382 13.7995 19.2049 15.1052C19.1807 15.3537 19.3625 15.5778 19.6109 15.6021C19.626 15.6051 19.6412 15.6051 19.6563 15.6051C19.8865 15.6051 20.0834 15.4294 20.1077 15.1961C20.247 13.8117 20.8286 12.3999 21.8313 10.9973C21.9283 10.8579 21.9404 10.6761 21.8646 10.5247Z" fill="#F05B33"/>
</svg>
