<svg width="21" height="22" viewBox="0 0 21 22" fill="none" xmlns="http://www.w3.org/2000/svg">
<path d="M20.3176 15.1633L17.4522 0.956386C17.3221 0.312194 16.693 -0.106423 16.0466 0.0237166L7.85614 1.67649C7.21192 1.80663 6.7933 2.43781 6.92344 3.082L6.9603 3.25986L3.07978 5.22497C2.79563 5.36813 2.58523 5.61539 2.48545 5.91905C2.38568 6.22271 2.40955 6.54589 2.55488 6.83003L2.85422 7.41783L0.557124 9.7148C0.0929377 10.179 0.0929377 10.9359 0.557124 11.4023L10.8061 21.6508C11.0382 21.8829 11.344 22 11.6499 22C11.9557 22 12.2616 21.8829 12.4937 21.6508L17.0835 17.0612L17.1659 17.02L19.3892 16.571C20.0291 16.4387 20.4478 15.8075 20.3176 15.1633ZM3.37046 5.80409L7.09044 3.91924L9.78664 17.2868C9.9016 17.8529 10.4005 18.2433 10.9558 18.2433C11.0339 18.2433 11.112 18.2346 11.1922 18.2194L14.7604 17.4993L10.4113 19.6987C10.1445 19.8332 9.81701 19.7269 9.68253 19.4601L3.13184 6.53071C2.99736 6.26609 3.10366 5.94074 3.37046 5.80409ZM1.01266 10.1746L3.16004 8.02732L8.35721 18.2845L1.01266 10.9403C0.802253 10.7299 0.802253 10.385 1.01266 10.1746ZM12.0273 21.1888C11.8234 21.3927 11.4634 21.3927 11.2595 21.1888L10.4461 20.3754C10.5328 20.3537 10.6196 20.3234 10.702 20.28L15.2137 17.9982L12.0273 21.1888ZM19.2547 15.9311L11.0642 17.5839C10.7692 17.6425 10.4851 17.4516 10.4244 17.1588L7.55897 2.95186C7.50041 2.65905 7.69131 2.37274 7.98413 2.31201L16.1746 0.659235C16.2115 0.652728 16.2462 0.648389 16.2831 0.648389C16.5369 0.648389 16.7625 0.826245 16.8145 1.08436L19.6799 15.2913C19.7384 15.5863 19.5476 15.8726 19.2547 15.9311Z" fill="#48A902"/>
<path d="M14.291 12.1252L14.0502 11.9842C13.9895 11.9495 12.5752 11.1122 11.2108 9.93013C10.1631 8.89552 10.3107 7.92164 10.7944 7.35119C11.328 6.72001 12.4017 6.41636 13.2845 6.85883C13.9417 6.16909 15.0523 6.09968 15.7812 6.50528C16.4536 6.88052 16.9633 7.74378 16.3733 9.04518L16.3625 9.0647C15.5274 10.6134 14.51 11.8584 14.4688 11.9104L14.291 12.1252ZM12.38 7.29914C11.9505 7.29914 11.5319 7.48567 11.2911 7.76981C10.9028 8.22747 11.0351 8.84129 11.6533 9.45078C12.649 10.314 13.6814 10.9886 14.1391 11.2727C14.4645 10.852 15.1803 9.87808 15.7833 8.76321C16.1304 7.99322 16.0133 7.37505 15.4645 7.07139C14.9222 6.7699 14.035 6.85666 13.6294 7.46181L13.4429 7.74162L13.1695 7.54424C12.9288 7.37505 12.6533 7.29914 12.38 7.29914Z" fill="#48A902"/>
</svg>
