<svg xmlns="http://www.w3.org/2000/svg" width="127" height="101" viewBox="0 0 127 101"><g><g><g><g><g><g><g><path fill="#fff" d="M103.724 7.96c-1.699-4.474-4.992-5.355-9.934-4.921"/></g></g><g><g><path fill="#fff" d="M103.289 8.675c-2.092.553-4.333.509-6.117-.695-1.138.7-2.137 1.531-2.602 1.934 3.727 2.244 6.071 1.793 8.719-1.24z"/></g></g><g><g><path fill="#fff" d="M103.973 7.09c.411-3.527-.641-5.58-4.72-7.09-.037.549-.082 1.655.017 2.824 2.11.575 3.691 2.01 4.703 4.267z"/></g></g></g><g><g><g><path fill="#fff" d="M112.336 17.03c.068-.478.082-.876.086-.934l.005-.004c.253-4.807-2.435-7.224-7.427-9.282.005 1.062.108 3.988 1.098 6.161h.004c.118.133.886 3.045 6.234 4.059z"/></g></g><g><g><path fill="#fff" d="M111.6 17.448c-2.955-.672-4.924-1.987-5.864-3.908-1.568.11-3.072.434-3.736.593 2.503 4.214 5.069 5.081 9.6 3.315z"/></g></g><g><g><path fill="#fff" d="M113.73 15.21c1.527-2.687 1.6-5.09-1.571-8.6a21.677 21.677 0 0 0-1.559 2.917c1.107 1.049 2.223 2.416 2.403 5.099.262.199.393.3.728.584z"/></g></g></g><g><g><g><path fill="#fff" d="M116.307 28.412c.573-1.062.94-1.61 1.242-2.062.262.327.393.487.696.903 1.106-3.475.198-5.055-.71-6.923l.005-.004c-1.301-2.134-4.287-4.75-4.314-4.776-2.471 7.418-.52 10.552 3.08 12.862z"/></g></g><g><g><path fill="#fff" d="M115.824 29.339c.072-.146.145-.288.212-.42-2.525-1.616-3.988-3.594-4.35-5.878-1.77-.434-3.55-.598-4.296-.651 1.147 5.33 3.637 7.05 8.434 6.949z"/></g></g><g><g><path fill="#fff" d="M118.912 28.21c3.32-2.647 4.323-5.43 2.078-10.45-.524.43-1.685 1.43-2.76 2.638 1.292 2.275 1.423 4.577.416 7.423.085.123.176.252.266.39z"/></g></g></g><g><g><g><path fill="#fff" d="M120.008 41.47c2.702-4.443 1.08-7.427 1.017-7.967h.004c-.664-1.947-1.87-4.12-3.438-6.183-3.058 5.13-4.535 9.476-.718 14.057a26.207 26.207 0 0 1 2.037-2.275c.317.611.624 1.222 1.098 2.368z"/></g></g><g><g><path fill="#fff" d="M115.78 42.813c.244-.35.492-.677.736-.991-1.852-2.182-2.647-4.316-2.49-6.68-1.86-.933-3.803-1.562-4.58-1.792-.135 5.882 1.974 8.277 6.334 9.463z"/></g></g><g><g><path fill="#fff" d="M120.464 42.661c4.36-2.071 6.212-4.877 5.028-10.981a30.626 30.626 0 0 0-3.75 2.226c.823 2.815.367 5.37-1.472 8.233.063.168.131.34.194.522z"/></g></g></g><g><g><g><path fill="#fff" d="M118.275 56.025c3.804-4.13 2.774-7.188 2.882-8.334h.01c-.33-2.749-1.306-5.157-2.413-7.591-3.664 4.16-6.677 8.21-4.716 13.433a32.043 32.043 0 0 1 3.388-2.452c.434 1.687.705 3.395.85 4.944z"/></g></g><g><g><path fill="#fff" d="M111.683 55.683a29.145 29.145 0 0 1 1.884-1.757c-.845-2.151-.967-4.032-.406-6.055-1.844-1.438-3.863-2.558-4.63-2.961-1.45 6.294.45 8.98 3.152 10.773z"/></g></g><g><g><path fill="#fff" d="M118.36 57.455c5.295-1.324 7.992-3.993 8.037-10.955-.772.212-2.706.775-4.635 1.642.285 3.236-.781 5.913-3.442 8.644.018.217.032.425.04.669z"/></g></g></g><g><g><g><path fill="#fff" d="M112.642 68.924c4.287-3.01 4.49-5.585 5.042-8.042h.004c.416-3.497-.302-7.36-.641-8.892-4.45 2.983-8.786 6.86-8.601 12.154a36.041 36.041 0 0 1 5.023-1.983 36.794 36.794 0 0 1-.827 6.763z"/></g></g><g><g><path fill="#fff" d="M104.787 66.259a26.465 26.465 0 0 1 3.104-1.828c-.109-2.032.27-3.71 1.22-5.4-1.627-2.005-3.497-3.682-4.225-4.311-1.834 3.926-3.049 7.799-.099 11.539z"/></g></g><g><g><path fill="#fff" d="M112.22 70.6c6.004-.13 9.595-2.298 11.411-9.84-.858.035-3.108.168-5.439.637-.366 2.532-1.387 5.48-5.742 8.34-.072.287-.149.575-.23.862z"/></g></g></g><g><g><g><path fill="#fff" d="M104.492 79.129c5.028-2.253 5.643-5.28 6.424-6.502h.01c1.485-3.625 1.856-7.755 1.95-9.667-5.71 2.005-11.392 4.86-12.716 10.64 3.989-.637 7.2-.451 7.269-.456a39.432 39.432 0 0 1-2.937 5.985z"/></g></g><g><g><path fill="#fff" d="M95.76 74.665a25.139 25.139 0 0 1 3.782-.96c.474-2.267 1.377-3.984 2.909-5.529-1.13-2.585-2.647-4.926-3.221-5.776-3.072 3.66-5.58 7.383-3.47 12.265z"/></g></g><g><g><path fill="#fff" d="M117.26 74.062c-1.378-.292-4.165-.837-5.968-.872-1.41 3.249-3.614 5.28-7.314 6.763-.325.51-.66 1-.998 1.465 5.846 1.253 10.29-.12 14.28-7.356z"/></g></g></g><g><g><g><path fill="#fff" d="M100.959 83.008h.018c2.286-2.51 4.35-6.236 5.624-9.308-5.466 0-12.319.748-15.86 4.89 1.901.293 4.033.753 5.994 1.355-1.92 2.567-4.635 5.44-7.255 7.485 5.882.203 8.09-1.332 11.479-4.422z"/></g></g><g><g><path fill="#fff" d="M90.08 78.497c1.116-1.372 2.304-2.306 3.926-3.085-.04-2.112-.804-5.48-1.206-7.122-4.02 2.288-7.806 5.382-8.1 9.919 1.77-.08 3.614.049 5.38.288z"/></g></g><g><g><path fill="#fff" d="M107 86.644c-.817-.504-3.18-1.907-5.85-3.014-2.832 3.019-6.32 4.7-12.387 4.329-.158.115-.32.23-.483.345 6.726 4.678 11.894 4.444 18.72-1.66z"/></g></g></g><g><g><g><path fill="#fff" d="M79.345 90.63c4.558 0 7.761-2.274 7.883-2.327l.01.009c2.859-1.802 5.727-4.515 8.533-8.07 0 0 0-.004.004-.004-11.248-3.12-19.741-2.11-24.385 8.507 2.448.992 4.69 1.886 7.955 1.886z"/></g></g><g><g><path fill="#fff" d="M71.118 87.98c2.589-5.28 6.487-8.64 11.036-9.499.719-3.364.85-6.745.872-7.821-1.563.372-7.969 2.107-10.476 6.095-2.277 3.63-1.748 9.113-1.432 11.224z"/></g></g><g><g><path fill="#fff" d="M92.395 93.839c-.682-.74-2.737-2.9-5.227-4.829-4.78 2.868-10.11 2.73-15.368.527 5.498 7.112 11.163 8.994 20.595 4.302z"/></g></g></g></g><g><path fill="#fff" d="M56.016 97.41c4.44-6.329 11.853-8.604 18.603-9.976.745-.15.975.947.234 1.098-7.774 1.58-12.097 3.855-14.627 5.904-.1.08-.185.16-.28.24-2.995 3.341-1.744 5.404-1.744 5.404s-.763.234-1.91-.235c-1.148-.47-1.862-.934-1.862-.934z"/></g></g><g><g><g><g><g><path fill="#fff" d="M22.92 7.96c1.694-4.474 4.992-5.355 9.934-4.921"/></g></g><g><g><path fill="#fff" d="M23.36 8.675c2.092.553 4.332.509 6.117-.695 1.138.7 2.136 1.531 2.602 1.934-3.723 2.244-6.067 1.793-8.719-1.24z"/></g></g><g><g><path fill="#fff" d="M22.674 7.09c-.416-3.527.642-5.576 4.72-7.09.037.549.082 1.655-.017 2.824-2.114.575-3.691 2.01-4.703 4.267z"/></g></g></g><g><g><g><path fill="#fff" d="M14.317 17.02c-.068-.478-.082-.876-.086-.934l-.005-.004c-.253-4.807 2.435-7.224 7.427-9.282-.004 1.062-.108 3.988-1.098 6.161h-.004c-.122.133-.89 3.045-6.234 4.059z"/></g></g><g><g><path fill="#fff" d="M15.04 17.438c2.954-.672 4.924-1.987 5.864-3.908 1.567.11 3.072.434 3.736.593-2.499 4.214-5.064 5.081-9.6 3.315z"/></g></g><g><g><path fill="#fff" d="M12.932 15.21c-1.527-2.687-1.6-5.09 1.572-8.6.33.518 1.012 1.647 1.558 2.917-1.107 1.049-2.222 2.416-2.403 5.099-.258.199-.389.3-.727.584z"/></g></g></g><g><g><g><path fill="#fff" d="M10.348 28.402a22.315 22.315 0 0 0-1.242-2.062c-.262.327-.393.487-.696.903-1.107-3.475-.199-5.055.71-6.923l-.005-.004c1.3-2.134 4.287-4.75 4.314-4.776 2.47 7.418.515 10.552-3.081 12.862z"/></g></g><g><g><path fill="#fff" d="M10.832 29.329c-.072-.146-.144-.288-.212-.42 2.525-1.616 3.989-3.594 4.35-5.878 1.771-.434 3.551-.598 4.296-.651-1.152 5.33-3.636 7.05-8.434 6.949z"/></g></g><g><g><path fill="#fff" d="M7.734 28.2c-3.32-2.647-4.324-5.43-2.078-10.45.524.43 1.685 1.43 2.76 2.638-1.292 2.275-1.423 4.577-.416 7.423-.086.124-.172.252-.266.39z"/></g></g></g><g><g><g><path fill="#fff" d="M6.647 41.47c-2.702-4.443-1.08-7.427-1.017-7.967h-.004c.664-1.947 1.87-4.12 3.437-6.183 3.059 5.13 4.536 9.476.719 14.057a26.209 26.209 0 0 0-2.038-2.275c-.316.611-.628 1.222-1.097 2.368z"/></g></g><g><g><path fill="#fff" d="M10.876 42.813c-.244-.35-.492-.677-.736-.991 1.852-2.182 2.647-4.316 2.49-6.68 1.856-.933 3.803-1.562 4.58-1.792.14 5.882-1.97 8.277-6.334 9.463z"/></g></g><g><g><path fill="#fff" d="M6.178 42.661C1.818 40.585-.033 37.784 1.15 31.68a30.627 30.627 0 0 1 3.75 2.226c-.823 2.815-.366 5.37 1.472 8.233-.058.168-.126.34-.194.522z"/></g></g></g><g><g><g><path fill="#fff" d="M8.392 56.025c-3.804-4.13-2.774-7.188-2.882-8.334h-.009c.33-2.749 1.306-5.157 2.412-7.591 3.664 4.16 6.677 8.21 4.716 13.433a32.042 32.042 0 0 0-3.388-2.452 32.078 32.078 0 0 0-.849 4.944z"/></g></g><g><g><path fill="#fff" d="M14.954 55.673a29.15 29.15 0 0 0-1.884-1.757c.84-2.151.971-4.032.407-6.055 1.843-1.438 3.862-2.558 4.63-2.961 1.455 6.294-.452 8.98-3.153 10.773z"/></g></g><g><g><path fill="#fff" d="M8.277 57.455C2.982 56.13.29 53.462.24 46.5c.772.212 2.706.775 4.635 1.642-.285 3.236.781 5.913 3.442 8.644-.013.217-.031.425-.04.669z"/></g></g></g><g><g><g><path fill="#fff" d="M14.002 68.924c-4.287-3.01-4.49-5.585-5.042-8.042h-.004c-.416-3.497.303-7.36.641-8.892 4.45 2.983 8.787 6.86 8.602 12.154a35.82 35.82 0 0 0-5.024-1.983c.054 2.293.375 4.727.827 6.763z"/></g></g><g><g><path fill="#fff" d="M21.863 66.249a26.465 26.465 0 0 0-3.103-1.828c.108-2.032-.271-3.71-1.22-5.4 1.626-2.005 3.501-3.682 4.224-4.311 1.834 3.926 3.045 7.799.1 11.539z"/></g></g><g><g><path fill="#fff" d="M14.421 70.6c-6.004-.13-9.595-2.298-11.411-9.84.858.035 3.113.168 5.434.637.37 2.532 1.387 5.48 5.742 8.34.077.287.154.575.235.862z"/></g></g></g><g><g><g><path fill="#fff" d="M22.164 79.119c-5.028-2.253-5.642-5.28-6.423-6.502h-.01c-1.486-3.625-1.856-7.755-1.951-9.667 5.71 2.005 11.398 4.86 12.717 10.64-3.99-.637-7.201-.451-7.269-.456a39.432 39.432 0 0 0 2.936 5.985z"/></g></g><g><g><path fill="#fff" d="M30.88 74.665a25.139 25.139 0 0 0-3.78-.96c-.475-2.267-1.379-3.984-2.91-5.529 1.13-2.585 2.647-4.926 3.22-5.776 3.077 3.66 5.58 7.383 3.47 12.265z"/></g></g><g><g><path fill="#fff" d="M9.39 74.062c1.378-.292 4.165-.837 5.968-.872 1.409 3.249 3.614 5.28 7.313 6.763.326.51.66 1 .999 1.465-5.85 1.253-10.296-.12-14.28-7.356z"/></g></g></g><g><g><g><path fill="#fff" d="M25.688 83.008h-.014c-2.286-2.51-4.35-6.236-5.624-9.308 5.47 0 12.32.748 15.86 4.89a43.567 43.567 0 0 0-5.994 1.355c1.92 2.567 4.635 5.44 7.255 7.485-5.886.203-8.09-1.332-11.483-4.422z"/></g></g><g><g><path fill="#fff" d="M36.576 78.497c-1.116-1.372-2.304-2.306-3.926-3.085.04-2.112.804-5.48 1.206-7.122 4.02 2.288 7.806 5.382 8.1 9.919-1.775-.08-3.614.049-5.38.288z"/></g></g><g><g><path fill="#fff" d="M19.64 86.644c.818-.504 3.18-1.907 5.85-3.014 2.833 3.019 6.32 4.7 12.387 4.329.158.115.32.23.483.345-6.722 4.678-11.894 4.444-18.72-1.66z"/></g></g></g><g><g><g><path fill="#fff" d="M47.3 90.62c-4.558 0-7.761-2.274-7.883-2.327l-.009.009c-2.86-1.802-5.728-4.515-8.533-8.07 0 0 0-.004-.005-.004 11.248-3.12 19.741-2.11 24.385 8.507-2.453.992-4.693 1.886-7.955 1.886z"/></g></g><g><g><path fill="#fff" d="M55.528 87.97c-2.589-5.28-6.487-8.64-11.036-9.499-.718-3.364-.85-6.745-.872-7.821 1.563.372 7.969 2.107 10.476 6.095 2.277 3.63 1.748 9.113 1.432 11.224z"/></g></g><g><g><path fill="#fff" d="M34.25 93.829c.682-.74 2.738-2.9 5.227-4.829 4.78 2.868 10.11 2.73 15.368.527-5.493 7.112-11.163 8.994-20.595 4.302z"/></g></g></g></g><g><path fill="#fff" d="M70.63 97.41c-4.44-6.329-11.854-8.604-18.603-9.976-.745-.15-.975.947-.23 1.098 7.775 1.58 12.098 3.855 14.623 5.904.1.08.185.16.28.24 2.995 3.341 1.744 5.404 1.744 5.404s.763.234 1.91-.235c1.148-.47 1.862-.934 1.862-.934z"/></g></g></g></g></svg>